<svg id="Layer_4" data-name="Layer 4" xmlns="http://www.w3.org/2000/svg" viewBox="0 0 510.96 531.13">
  <g>
    <g id="ATatlB">
      <g>
        <path d="M160.66,448.77c1.72-.1,2.85,1.5,4.21,2.43,2,1.56,2.52,4.38,5.53,2.59.72,1.93,2.59,1.07,3.94,1.54,1.7.35,2.7,1.8,4.52,2.12,1.86.51,3.42,2,5.42,1.75,2-.51,1.62,3.12,4,2.21.86-.24,1.94.39,2.82.2a4.07,4.07,0,0,1,3,.45c1.53.92,2.73,2.13,4.72,1.11.3-.14,1,.62,1.71,1.1l1-.45c1.27.85,2.21,3,3.79,2.87.35-.7-.27-1-.79-1.84a33,33,0,0,0,8,1.81,13.06,13.06,0,0,1,8.51,1.13c1.68.83,3.29,2.24,5.16,2.52,2.89.26,7.55-1.91,9.28,1.23.16.45.81.74,1.22,1.09.44-.88.8-1.62,1.21-2.45,4.52,4.26,4.16.93,8.22,2.25,5.42.49,11-.73,16.47-.32,3.26-.52,6-1.06,9.29.17.35-.38,1-.45,1.93,0a3.13,3.13,0,0,0,1.78.14c1.63-.26,3.29.78,4.9-.17,2.68-.49,5.57,1.27,8.18.4,1.88-1.45,4.68-.78,6.91-1.48,1.3-.27,3.07.37,3.7-1.61a1.36,1.36,0,0,1,1.24-.35c1.61.86,3-.63,4.54-.34.38,0,.59-1,.79-1.12,1.8-.2,3.21-2.15,5.06-1.52,2.45.84,4.14-.54,6.07-1.42,4.5-1.68,9.09-3.89,13.64-5.22,3.93-.85,6.62-3.78,10.63-4.47.93-.3,1.8-.3,2.58-1.24,1.23-1.51,3.33-1.48,5.1-2,.32-.09.8,0,1-.24,1.42-1.67,3.47-1.07,5.21-1.59,1.5-.49,2.72-2.07,4.21-2.56,2.59-.6,3.55-3.45,5.93-4.58.95-.8,2.61-.95,3.3-2,.91-2.85,4.42-2.47,6.11-4.71,1-.72,1.52-2.31,2.76-2.62,1.46,0,2.11-1.23,3.05-2,.4-.34.79-1,1.17-1,1.42,0,2-1.5,3.32-1.58a.61.61,0,0,0,.44-.36c1-4.72,6.79-4.56,8.93-8.41.6-.84,1-2.19,2-2.6,1.29,0,1.68-.63,2-1.82.17-.68,1.14-1.23,1.85-1.69.54-.34.88-.53.81-1.33a1.94,1.94,0,0,1,.9-1.56,8.26,8.26,0,0,0,4-4.11c.72-1.36,2.16-2.24,2.4-4,.17-.71,2.58-1.1,3.08-1.72.4-2.09,2.09-3.12,3.41-4.48,3.21-5.63,8.24-10,11.53-15.59,4.85-5.07,6.51-5.17,7.24-12.87a2.65,2.65,0,0,1,.83-1.51c1.68-1.14,1.69-3.15,2.72-4.7.62-1,1.47-1.84.93-3.2-.14-.34.19-1.22.46-1.29,2.79-.22,1.66-5.95,4-4.75.7-1-1.52-1-.73-2.2a19.4,19.4,0,0,0,3.7-7.87c1.94-1.84.68-4.81,1.56-7.07a23.19,23.19,0,0,1,1.53-2.74c.44-1.41.94-3.27,2.24-4.05.95-.48,1.2-1,.77-1.81-.76-1.24.3-1.75,1-2.5-.34-1.61.88-2.59,1.49-3.81a2,2,0,0,0,.3-1.1,7.12,7.12,0,0,1,1.13-5.72c.4-.68.62-1.24-.28-1.69-1.52-3.62-.65-9.09,3.23-11.23-.07-.35,0-.9-.24-1.07-2.82-1.67,1.77-5.37-1.43-6.07,1.69-2.45,1-5,.46-7.66s2.09-4.62,1.19-7.21a1.49,1.49,0,0,1,.14-1.24c1.18-1.5-.33-2.88-.26-4.41,0-2.67.89-5.08,1.47-7.63.13-.65,1.21-1.14,1.78-1.63-2-3.46-3.64-6.39-3.14-10.37,0-1.2.48-2.33-.63-3.37-.34-.32-.09-1.26-.1-1.91.26-2.62-1-5.13-1.12-7.67.29-2.78,2.11-9.6,1.42-12.23,0-.25,0-.63-.14-.79-1.95-2-.22-4.57-1.26-6.86-.7-2.52-1-5.15-2.17-7.56-.65-2.81-.12-6.38-1.49-9.11-.86-1.61,0-3.44-1.11-5.1a3.18,3.18,0,0,1,.14-3.85c.27-.31-.11-1.52-.51-2.07-2.15-2.66-2.61-5.75-2.44-9-1.84-2-1.34-4.88-2.6-7.1-.16-.29-.28-.7-.53-.82-2.12-1.17-2.51-3.65-1.81-5.75-.79.52-1.21,0-1.35-.75-.23-1.25-1-2.4-.69-3.79.06-.27-.47-.9-.81-1-3.22-1.29-3.23-5.5-5.06-8-1.76-1-2.35-3.31-3.69-4.82-1-1.36-2.38-2.48-3.46-3.78-1.48-2-1.66-4.86-3.91-6.26-1.17-1.12-2-2.82-3.41-3.73-2.71-1.47.5-4.65-2.34-5.62a3,3,0,0,1-2-2.47c-.45-1.24-2.56-1-3.07-2.39a57.63,57.63,0,0,1-7.19-8.24c-1.22-2.13-6-3.77-3.94-6.57-5.37-1.53-8.62-7.09-12.44-10.72A168.9,168.9,0,0,0,374,89.28c-5-3.67-10-7.34-15.22-10.67A141.19,141.19,0,0,0,292.91,57a3,3,0,0,1-.72-4c-2.53,3.8-15.78-.95-20.14,1.18a13,13,0,0,1,.36-2.9l-.2-.13-.46.65c-4.2-1.05-2.35,3-6.41,1.59-1.22,1.93-4.13.45-6.09,1.21-1.46.3-6.52,1.22-4.15-1.31,1-.55,2-1,1.44-2.42.31-1.13,2.19-.92,3.14-1,.4,0,.76.57,1.32,1,1.59-1.2,3.31-1.27,5.41-.7,2.19-2.13,6-.92,8.92-.89,1.21,1,2.39.79,3.84.41s2.88.07,4.33.11c2.06-.12,3.36-2.22,5.63-2,2.47-.37.56,2.69,2.7,2.27,4.1-.57,8.31-2.84,12.2-.4,1.17.72,3.39-.48,3.64,1.48.06.31.5.57.77.85l.31-.25-.4-1.36h4.17L312,51.69c.87.62,1.43,1.31,2.11-.06.34-.51,2.43-1.59,2.89-1.3,2,1.48,3.54-.46,5.51-.17l-.13,1.06a17.16,17.16,0,0,1,6.82-.51c2.43-1.35,5-.18,7.52-.39,3.48-.4,6.83-1,10.27-1.56,2-.78,3.65,1.6,5.78,1.43,7-.7,14.1,1.85,20.95-.08,1.25,2.13,3.35-1.44,4.9.09,2.06.58,4.64.3,6.79.07a2.66,2.66,0,0,1,2.62.22,2.5,2.5,0,0,0,2.13-.27c2.92-1.24,6,0,9.27-.41,1.49-1.89,4.55.59,6.74-.1,5.23-.89,10.34.12,15.48-.51,1.81.12,3.56,1.33,5.5,1,3.06.58,13.7-1.18,15.19,1.24a2.54,2.54,0,0,0,1.32-.38c3.52-3,5.73,1.2,7.45-.39s3.67.92,5.51,1.31c2,.72,2,.67,1.67,2.52,2.49,1.14,3.1,3.11,2.76,5.62-.55,4.12.26,9.1,0,13.36a88.46,88.46,0,0,0,.61,15.94,11.68,11.68,0,0,1-.07,5.36c-.37,1.09-1.1,2.17-.82,3.29a11.06,11.06,0,0,0,.93,1.81c1.06,2.4-1.31,5.15-.66,7.68a40.08,40.08,0,0,0-1.89,6.15,4.09,4.09,0,0,0,2.17-.83c.53,4.84.54,10.79-3.64,13.28,1-.18,1.72.93,2.09,1.87a30.27,30.27,0,0,1,1.8,6.92,5.51,5.51,0,0,1,1,3.74,68,68,0,0,1-.55,9.35c-.28,2.24.76,4.68.09,6.57-.88,2,1.13,4.92-1.67,5.86.87.67,1.57,1.19,2.65.11a3.14,3.14,0,0,1-3.49,2c-1.87-.34.31-3.82-1.82-4.55-1.57-.77-1.61-.91-.83-2.58a30.74,30.74,0,0,0,1.12-3.25c-3-1.42-.44-9.83-2.28-13l-.42,0,.67-1.26h-.29c.19-5.31-1.18-10.44-.43-15.73a9.28,9.28,0,0,1,.1-5.73c.13-.48-.48-1.16-.75-1.74-.61-1.64-.61-4,.88-5.1,1.81-1.16-.58-1.56-.85-2.72a37.28,37.28,0,0,1-.55-4c-.86-1.23-1-2.39.22-3.5.11-1.59-.62-3.35-.66-5a24.52,24.52,0,0,0,.08-5.68l1.78-.56.11-.46-1.82-.92c-1.11-3.18-.81-4.61,1.77-6.39-2.22-2.94-2.9-3.2-.78-6.58,1.22.6,2.26,1.11,3.31,1.61l.17-.37-1.08-.57c-.49-.25-.65-2.27-2.43-2.56,1.28-4.7,1.31-12.59-3.33-15.71-3.95-2.66-9.07-2.6-13.84-2.49q-27,.6-54-.75l-21.13,1.58c-2.27.17-5.41-.41-5.4-2.68a15,15,0,0,1-15.46,1.19,63.49,63.49,0,0,1-20.39-1c-1.68-.36-4.37.3-3.67,1.87l11.4,5.75,11.05,2.19a11.35,11.35,0,0,1,5.19,2c1.44,1.2,2.18,3.46,1.09,5L348,66.32a204.68,204.68,0,0,1,28,14.9c2.07,1.31,4.39,3.29,3.87,5.69a6.89,6.89,0,0,1,6,6.36c2.13-1.63,5,.66,6.78,2.62A49.71,49.71,0,0,0,403.87,105l16.81,21.82c2.11.89,3.54,2.86,4.87,4.73l11.7,16.61c4.05,5.75,8.29,12.27,7.27,19.23,1.11-1.31,3.68.57,2.77,2l-2.84-.28c.58,1.9,3.93,1.82,4.41-.11a71.94,71.94,0,0,1,5.57,12.53c.41,1.2.75,4.84,1.72,5.62.42.35,3.24,2.28,2.68.24-.45-1.64.59-2.81.91-4.2.17-3.38-1.95-6.56-2.65-9.85-.21-.94.33-2.08.23-3a2.1,2.1,0,0,1,2.23-2.64c1.21-.11,2.41-.78,2.27,1.17,0,.81.61,1.65-.15,2.44a.42.42,0,0,0,.08.41c1.24.95.78,2.64,1.22,3.85-1,.85-.55,1.79-.36,2.82.31,2.48,1.05,5.18.09,7.54.08,3.27.62,6.56-.68,9.67-1.09,2.91-.32,3.86-4,2.62-.6,5.24,2.66.27,3.33,4,.74,2.88.38,6,1.68,8.75a2.65,2.65,0,0,1,0,1.88c-.65,1.69-.19,3.46-.43,5.13,1.21,3.53-.2,7.07.05,10.61.29,2.53-.45,5.32.75,7.62-.06,1.37-.94,3.06-.4,4.34,2.15,2.15,1.3,5.36,1.4,8.07,0,1.34.81,2.45.24,3.81a3.9,3.9,0,0,0-.18,3.09c.82,1.85,1.58,3.93.42,6,.26,2.85-.53,5.87.8,8.49-1.66,2.86-1,5.88-.25,9l-1.59.16c.22,1.53,2.53,2.63.05,3.07.95,2.9.35,5.9.62,8.82a7.67,7.67,0,0,1,0,4.5c-.79.92.84,1.86.63,2.68-1.35,1.2-.76,4.94.08,6.37,1.21,2.79-.11,5.63.06,8.46.1,1.29.35,4.43.35,5.21-.13,1.95,1.13,3.77.23,5.68a4.85,4.85,0,0,0-.36,3c.37,3,.09,5.9.23,8.89.06,1.38,1.11,3.16-.61,4.39a30.41,30.41,0,0,0,0,3.09c1.36.82.12,2.5.47,3.89a10.7,10.7,0,0,1-.54,7.4,30.91,30.91,0,0,0,1.83,12.22c-.7,2.18.62,4.3-.15,6.42a24.8,24.8,0,0,1-1.07,7.46c-.08.28-1,.32-1.64.52,2.09.66,2.42,1.43,2.13,3.53-.55,2.44,1.78,7.3-2,7.73.54.85,1.08,2.3-.35,2.15-2.26-.26-.7,2.61-.39,3.7.08.19.75.2,1.14.16.75-.12,1.66-.71,2.33,0s-.37,3.44-1.15,3.6c-.91.39-3.42-.33-2.55,1.4l1.4-.61c.48,3.13.48,3.13-1.66,4.13l2.51,1.63c-.53.72-.31,1.28.26,2.07,2,2.78-.16,6.26.13,9.19,1.8,1.58-.68,5.27.47,7.66.7,1.28-1.39,3.46.4,4.23-.35,1.78-1.32,3.15-.49,5.1.47,1.23-.07,2.86-.16,4.32-.3,1.81.36,3.65-.54,5.35-.15.39-.43,1-.69,1-1.18-.16-4.48.75-4.76-.64.37-.9-.11-1.52-.44-2.29a6,6,0,0,1,.46-5.55,1.25,1.25,0,0,0,.06-1.05,2.3,2.3,0,0,1-.07-2.36,27.25,27.25,0,0,0-.8-3.33c-1-2.16-1-2.15,1.05-3.34-1.46-2-3.63-3.29-1.06-5.51,1.3-2.63-3.42-8.71-.36-10.45.82-.4.42-1.05.33-1.67-.1-3.05-2.34-6.8,2.67-5.6l.05-.31c-3.14-.59-1.41-2.76-3.37-4-.31-1.46,1.61-3.31,1.72-4.83-.41-2-1.21-3.88-.87-5.94a5.65,5.65,0,0,0-.33-3.16c-.34-1,.25-2.32.41-3.34.1-1.37,0-2.73,1.13-3.85.29-.29.15-1.22-.06-1.75-.62-1.81.23-3.61-.41-5.52a137.86,137.86,0,0,0-.43-20.32c-.72-2.51,1.59-4.18.61-6.71-1.92-3,1.8-9-3.35-9.8-1.19,1.39-2.65,3.19-4,4.67-.29.31-1,.36-.54,1.11.08.14-.62.72-.93,1.07a9.26,9.26,0,0,1-.74,5.79c-1,1.89-.79,5.27-3.65,4.92-1.11-.07-1.79.06-1.38,1.4,0,.94-1.24,1.66.2,2.3l-2.15.65c1.67.93,2.34,1.7,1.63,3.33-.16.31-1,.26-1.74.42.88,3.6-1.61,7.39-3.92,10a11.22,11.22,0,0,0-3.58,6.42c-.93,2.71-2.7,5.09-4.13,7.56l-.42-.15c.55,1.34.2,3.39-1.29,3.63-2.28.31-2.94,2.42-4.77,3.39.18,1.78.18,1.78-2.73,2.35.92,2.68-2.89,3.1-3.36,5.47-.58,1.64-2,2.94-1.87,4.87a1.09,1.09,0,0,1-.59.85c-1.76.64-1.77.62-2.56,1.54l-1.7-.62c.69,2.69-1.77,3.44-2.52,5.34.25,2.12-2.06,2-3.05,3-.44,1.59-1.79,2.34-2.83,3.41-1.71,1.82-2.63,4.44-5.31,5.05-5.35.77-5.48,11.56-11,9.86-2.57,2.36-5.36,4.31-7.9,6.39-.28,1.48-1.79,1.27-2.9,1.64-.8,0-2.16-.26-2.3.05-.63,1.36,1.27.57,1.48,1.64-2.39,1.75-5.18,3.16-7,5.58-1.94-.08-2.1,1.93-3.27,2.73-1,.7-1.71,1.87-3.25,1.84-1.94.4-3.26,1.65-5.27,2.62-1.65,2-6.14.48-7.65,3.51-.15.26-.63.33-1,.52-.17-.61-.3-1.05-.52-1.83-.65,1.25.15,2.54-1.66,2.62-.28,0-.55.37-.84.53-.64.4-1.45.58-2.07.93-1,.64-1.62,2.16-2.87,2.12-4.1-.82-3.62,3.76-10.46,2.91l-2,4.37c5,.74,10,1.74,15,.7,1.14-.18,2.32-.82,3.38-.63,1.79.31,3.84-1.14,5.36.86l1.44-1,.65,1.53h.29c.19-1.12.3-3,1.87-2.13,2.08,1.17,4.26,1,6.52.95,3.54-.51,7.15-.07,10.64-.14a5.77,5.77,0,0,1,5.36-.05c.48.25,1.2,0,1.68.28a3.23,3.23,0,0,1,.95,1c3.91-.07,8.63-3.54,11.61-.27.73.58,1.61-.36,2.21-.64,6.87-.93,13.82-.83,20.73-1.16,3.71,0,7.83-1.9,10.92,1.25,1.38-1.11,2.16-2.45,4-1.21.13-1,.18-2.12,1.48-1.32,1.5.91,3.08.37,4.6.63a3.18,3.18,0,0,0,2.9-.4c1,0,1.74,1.15,2.18,2.26.77-4,1.84-.32,4.9-1.7a10.62,10.62,0,0,1,5.7.18c.63.19,2,.65,2.38-.86.94-2.67,4.48.9,3.88-2.12,0-.19-.07-.51,0-.56,1.27-.76.57-1.93.64-2.93.52-3.16-.43-6.68,1.26-9.49-2.67-2.29-1.36-5.72,1.75-6.75,2.75,2,.28,4,2.42,6,.45.38.46,1.29.77,2.29l-1,.42c2.29,1.65,2,3.68,1.27,5.87.6,1.21-.06,1.83-1.27,2.42L466.9,467c-1.24.26-1.58,1-1.7,2.29-.35,1.43-1.15,4.46-3,4.5-4-1.08-1.83,3.5-4.58,2.56v-1.77c-3.83,1.49-8,.84-12,1.78-2.73.27-5.4-1-8.18-.88-2.69,1-5.17,2.46-8.1,1.11-3.4-.36-6.93,1.54-10.34.84-2.09,1.36-4.27-.15-6.41.22-.75.13-1.68-.76-2.51-1.18-.64,3.36-5.57,1.73-6.73-.64-.17-.4-.68-1.34-1.6-.61-.07.06-.55-.37-.84-.58l-.3.35,2.29,1.92-.11.33c-1.94,0-4-.17-5.83.52a1.85,1.85,0,0,1-2.47-.57c-.81-1.33-2.43.3-3.53-.87-1.5-1.37-2,1.77-4.33.42a2.31,2.31,0,0,0-2.85.46c-1.61,1.11-4.08,1.34-6.08,1.45-2.44,0-5.07.92-7.13-.86s-3.57,2.55-5.63.81c-1.43-.67-3.25.43-4.61-.81-.76-.5-2.17-.92-2.79-.05-1.54,2.71-5-.75-7.21,1.45l-1.17-1c-.73,1.56-3.36,2.3-4.58.93-.81-1-1.37-.75-2.22-.19-1.84.77-3.92-.13-5.87.52-2.37.3-4.68,1.43-7.31.33a9.25,9.25,0,0,0-6-.37c-2.49.49-5.1.6-7.54,1.37-1.44.05-3.41-.76-4.73-.14a3,3,0,0,1-3.3-.12c-3.69-1.91-7.41,1.32-11.13,1.41-.19,0-.41.13-.58.08-3.11-1.1-6.35.51-9.39.05a3.15,3.15,0,0,0-3.26-.55c-1.37.12-2.83.58-3.72-.92l-3.77,1.2-.13-.34,1.15-.92c-1.81-.41-3.66,1.3-4.92-.73-4.61,4.84-4.09.41-8,2-.15.11-.42.25-.53.19a3.39,3.39,0,0,0-2.68-.64c-.76.17-1.71-.48-2.66-.79-1.38,1.87-3.18-1.08-4.7.3-3.12,2.64-6.78,1.94-10.43,1.67a1.63,1.63,0,0,1-2.57-1.06c-2.63-.1-4.64-.32-7.12-.21-.77.22-1.45,1.6-2.25,1.78-2.53.35-3.67-2-3.32-4.19l-.37-.15c-1.34,2.38-.38,4.38-4.07,3-2.38-.8-5-.43-7.29-1.75-2.33,4.39-4.1-.67-6.76,1.86-4.16.27-8.12,1.58-12.31,1-3.16-1.13-6.68-.33-10.06-.28-3.06.18-6.18-1.46-9.17-.31-2,.94-4.13-.46-6.19-.66-.4-.08-1-.22-1.18,0-.8.85-1.7.5-2.62.46-3.9-.32-8,.65-11.81-.18a2.76,2.76,0,0,0-3-.24c-1.42.52-3-.34-4.52-.23-4.29.27-9.06.87-13.18-.36-.6-.95-1.31-.74-2-.29a4.24,4.24,0,0,1-5.68-.73c-1.61,2-4,.22-6.07,1.09-1.36.82-2.8-.82-3.76.19-1.1,2.16-3-1-4.4.67-3.83-.17-7.9,0-11.83-.6-.56,0-1.3.33-1.66.08-1.2-.84-2.3-.32-3.48-.1-.64,0-2.08-.76-2.65-.38-.28,1.66-1.58,1.12-2.55,1.19-3.33.13-6.67.23-10,.3-2.73-.78-4.82.67-7.37,1.36l.66-2.62c-.1-.08-.23-.2-.25-.18-1.93,1.51-4.21.86-6.36,1.05-2.43,1-4.13.13-5.81-1.05H57.16c-.29-.64-1-1.67-1-2.37,1-1.59,0-3-.48-4.37-1.45-6.06.14-12.37-.84-18.41.3-7.83-1.32-15.66-.13-23.56,0-.34.23-.73.13-1-1-2.51-.66-5.14-.68-7.76,0-.2.12-.5,0-.57-.89-.69-.31-1.57-.39-2.37-.19-1.89-.53-3.76-.77-5.64s1-3.8,1-5.69c.14-4.25-2-8.74.1-12.79a1.91,1.91,0,0,0-.23-1.59c-1.85-3.06,1.71-4.17-.24-7.63-.12-7-.68-14.11.31-21.11-.39-4.31-1.5-8.64-.58-13,.53-2.32.69-4.55-1.11-6.38-.88-2,0-4.5-.12-6.63,1.31-2.86.1-5.8.33-8.69,0-3.07.22-6.15.26-9.22a21.56,21.56,0,0,1-.23-7.39c.2-3.44-.57-7.13-.05-10.59-.69-3.71.36-7.39-.43-11.13.76-2.78.11-5.61.14-8.42.92-4.28-.46-8.59,0-12.95.25-2.12-1.35-4.5.18-6.31.57-.68.21-2.34-.11-3.11.64-2,.17-3.93-.06-5.92a34,34,0,0,1,.17-4.93A39.53,39.53,0,0,1,50.65,245l.36.09c.82-1.75.84-3.65,1.11-5.53a3.62,3.62,0,0,0-.55-2.22c-.42-1-.07-2.27,0-3.43s-.27-2.32.17-3.18c.92-1.79-.45-3.43,0-5.13.23-1.31-.75-2.54.07-3.84.29-2.18-1.28-4.61-.18-6.86.24-.62-.18-1.68.12-2.25a3.83,3.83,0,0,0,.28-4.61c-1.46-1.6-1.43-2,.44-3.41-2.73-5.69-.26-15,.71-20.94-.88.23-1.46-.87-1.67-1.75a49.53,49.53,0,0,1-.75-18.79c.28-1.88.68-3.75.8-5.65.39-6.18-2.12-12.6-.08-18.45.57-1.63,1.49-3.33,1-5-.44-1.39-1.76-3-.64-4l-.58-31.38-.15-8.22L51,85.44c0-2-.13-4.08-1.42-5.56.67.76,3.13-6.42,3.15-7.13.06-2.71-.84-5.9-1.2-8.63-.58-2.66,2.64-1.71,4.27-1.48,1,.11,1,.8.93,1.51a51.75,51.75,0,0,1-.47,6.94c-1.1,4.64-.36,10.51-.63,15.34a23.92,23.92,0,0,0,.06,4.86,37.83,37.83,0,0,0,1.21,4.53c1.91,6.69,1.65,13.78,1.37,20.73L58,122.19q-.57,14.67-1.16,29.35a15.43,15.43,0,0,0,.16,3.9c.38,1.79.69,6.38-.76,7.74-.37,1.87.09,4-.26,5.88-.3,2.34.4,4.67-.57,7.09a7.17,7.17,0,0,0,0,5.24c.2,1.15,1.77,4.43,0,4.68-.24,0-.45.39-.67.59.24.21.47.58.73.6,1.94.21.54,2.47.93,4l2.76-.94c-.26-1.13-1.66-2.55-1-3.79.53-1.22,1.28-2.35,1.27-3.78,0-.61.18-1.68.49-1.76,2.1-.54,1.35-2.71,2.34-3.84a.85.85,0,0,0,.22-.68c-1-2.56,3.08-3.77,1.49-6.09-.73-1.5.39-3.09,1.06-4.25.13-1.58.33-3.07,2.5-3.12l-.21-1.6c1.06-.12,1.24-.87,1.11-1.73a2.1,2.1,0,0,1,1.2-2.43,9.81,9.81,0,0,0,1.9-3.65c1.25-.63,1.19-2,1.76-3,2.37-2.91,2.64-6.81,5.37-9.43.74-.86,2.15-1.18,1.81-2.86,0-.6,1.85-1.56,2.54-1.9,2.8-3.86,6.92-7.49,7.46-12.46l6.7-8.23c.85-1,1.69-2.07,2.56-3.09a73.94,73.94,0,0,1,16.3-14.1,46.31,46.31,0,0,1,6.15-3.35,19.61,19.61,0,0,1,10.84-9.29c-.11-1.48,1.28-2.59,2.53-3.4,11.76-7.6,23.5-14.06,36.66-18.8,1.59-1.59,3.8-1.53,5.73-2.21,3.44-1.34,6.37-3.82,10.11-4.35,2.25-.32.55-3,.6-4.38,1.26-.15,5.46-3.11,4.83-.49a3.45,3.45,0,0,0,3-.21c2.29-.13,5,.4,7.34.39-.11,1.9-.08,2,1.58,1.36,2.24-1,4.57-3,7-3.08.49,1.88,2.45,1,3.47,1.86.55.39,1.49,1.25,2.08,1.24.71-.42,2,0,2.15-1.39a7.2,7.2,0,0,0-1.91-.18c.4-1.16,1.26-1.91,2.29-1.15,1.23,2.2,3.55-.51,5.25-.76,1.19-.2,2.44.43,3.65.45,1.83.06,1.73,1.45,1.83,2.86l.46.06.34-2c2.8,1.32,5.88-3.13,9-1.18a4,4,0,0,0,2.77.27c2.35-.53,4.13.45,5.9,1.72a1.6,1.6,0,0,0,1.12.19c1.82-.34,3.12-1.12,5-1.56-.18.44-.26,1.15-.57,1.27-2.39.65-.29,4.47-2.81,3.23a8.05,8.05,0,0,0-2.75.13L249,57.76c-4.28-8.46-8.27-1-13.09-5.47-1.93,2.11-2.7,3.18-5.66,3-1.47.68-.93-.63-1.71-1.37-1,1,.06,2.38-2,2a29.93,29.93,0,0,0-7.74.17c-1.84.31-3.57-.84-5.15.67-.66.44-2.31.13-3.27-.09-.17,1.64-.16,1.54-1.86,1.41-2.24.14-6.65,2.58-7-1.25-2.14-.13.64,2.16-1.43,3a1.23,1.23,0,0,1-1.09-.57c-1-3-6.25,3.74-11.64,2.67-1.59,4.07-3.3-1.23-3.84,2.05.12,1.2-.18,1.46-1.5,1.6s-2.23,1.39-3.42,2c-2.39,1.69-5.3,2.15-7.85,3.63-.27.13-.52.39-.78.39-1.82,0-3.18,1.29-4.86,1.67-1,.66-2.56,2.07-3.68,1.94-2-.4-3,1-4.28,1.82-2,1.21-3.86,2.66-5.84,3.91a214.85,214.85,0,0,0-48.66,41.69c-2.89,3.35-5.68,6.8-8.47,10.24l-16,19.81-5.9,16.61c-3.1,8.71-6.19,17.44-8.5,26.39-1.74,6.75-3.08,13.63-4.2,20.51-.52,3.14-3.34,12.57-2.08,15.3.87,3.32-1.2,6.81-1.23,10.2-.55,1.36-.63,2.58.86,3.49-4,5.2,2.54,9.42-1,11.79l.42,1c-1.53,3.64-1,6.94.18,10.29-.71.56-1.27,1.17-.49,2.06-.19,2.3.21,4.93-.9,7.16a1.44,1.44,0,0,0-.07.92,48.16,48.16,0,0,1,1.24,13.91l5.94,22.25c1.33,5,2.67,10,4.22,14.93A175.59,175.59,0,0,0,82.9,365.94c3.13,5.3,7.59,12.15,9.21,18-.09,2,1,3,2.7,3.72s11.48,12,10.42,14.94c0,.16,0,.37.09.55,3-.37,3.35,2.53,5.45,4.2a35.15,35.15,0,0,1,8.85,9.42c1.93,2.52,12.94,12.44,15.4,12.94.95,1.88,3.78,1.75,4.34,4.13.18.74,2.75,1,3.43.52a1.9,1.9,0,0,1,2.13-.61c.29.15.39.8.45,1.25-.33,5.31,3.35,1.51,5.12,6.67a6.75,6.75,0,0,0,5.22,4.18m-96-76.49c1,5.61-.61,11.15.34,16.74.34,2-.5,4.13,1,5.91.18,2.35-1,4.59-.13,7.11.48,2.48.86,6.23-.68,8.47-1.83,1.58.87,2.78.89,4.44.28,3.82-.41,7.94.41,11.64.8,2.65-.46,5.22-.84,7.91A1.89,1.89,0,0,1,62.13,434c.13,3.61.47,7.53.65,11.12.53,1.25.77,2.3-.18,3.43a31.82,31.82,0,0,1-.29,3.59c.65.08.46.7.42,1.47-.31,2.3.39,4.89-.34,7.08a2.39,2.39,0,0,0,.06,3.33,1.51,1.51,0,0,1,.17,1.21c-1,2.48.84,4.13.46,6.79,3.19-.19,2,2.81,5.2,1.35.42-.15,1.2-.22,1.34,0,.64,1,1.52.72,2.39.72s2.08-.37,2.86.64a.71.71,0,0,0,.55.07,29.7,29.7,0,0,1,8.68-1.58c1.81.13,3.59.77,5.45.3,2.13.25,4.3,1.12,6.46,0,1.29-.26,3.54,1.19,4.7.64.86-.46.78.56,1.36.29-.49-1.86,8-.21,9.71-1.5,1.69-.52,9.65.74,12,1.33,1.82,1,3.7.4,5.44.19s3.05-1,4.42.46c.13.14.47.13.7.1,1.94-.12,4.38-1.25,6.19-.87,1.21.51,2.17,0,3.24,0a13.58,13.58,0,0,1,2.46.24c1.35.24,2.7,1.45,4-.05a.6.6,0,0,1,.43-.06c3.72.84,7.45.39,11.19.29,1.87.1,3.72.84,5.5-.33,2.89.37,6.09-.75,9-.45,4.33.15,8.48-.67,12.81-.25.93,0,1.84.72,2.78-.07.14-.12.64.07.91.23,1.09.66,1.74,0,2.48-.61-.68-.61-1.18-1.4-1.83-1.55-1.35-.3-2.1-3-4-1.1-3.28.19-6.24-1.29-9.24-2.34-1.18-.4-2.09-1.67-3.59-1.1-.13.05-.48-.1-.5-.21-.29-1.34-1.66-1.34-2.44-2a4.24,4.24,0,0,0-4.18-.94c-2.16.84-2-2.72-3.75-2.87-1.28,0-1.79-.52-2-1.75-2.09,1.3-3.06-1.38-4.75-1l.4-2.33-.33-.22c-1.56,1.4-2.14-.92-3.59-1.24a16.17,16.17,0,0,1-2.28-1.14c-.76-.55-1.09-1.68-2.32-1.61-.86-1.18-3.65-2.11-5-3.08s-2.65-2.27-4.11-2.46c-2.44-.32-3-3-5.2-3.42a3.15,3.15,0,0,0-3.09-1.6c-.8-.1-1.3-.33-.89-1.34s-.08-1.54-1.09-2.12c-2.78-1.21-4.85-4-7.62-5a1.55,1.55,0,0,1-1.86-1.48c-.06-1.38-1-1.73-2-2.25-1.62-1.55-2.2-1.76-4.6-1.42,1.82-4.29-2.18-4.48-3.28-8.05-1-1.41-3.42-1.23-3.79-3.29,0-.22-.49-.39-.76-.55-1.43-.42-1.94-2.3-3.21-2.92-2.11-1.2-2-4.09-4.24-5.1-.48-.75-.94-1.53-2.18-1-.63.25-1.62-.21-2.35-.54-.17-.08.08-1,0-1.45s-.21-1-.47-1.12c-1.62-.58-1.68-2.06-2.14-3.33-.32-.91-1.56-1.24-2.08-1.93-.69-1.16-1.19-2.42-1.81-3.62-1-2.77-4-3.94-4.82-6.83a31.37,31.37,0,0,1-3.92-6.69c-1.59-1.75-1.68-3.58-2.18-5.64-1.57-.95-1-3.07-1.82-4.3-1.61-.55-1.2-3-3-3.26A31.06,31.06,0,0,1,73,364a2.34,2.34,0,0,1-2.39-2.42c0-2.33-1.45-2-2.94-2.73-.51-.72-1-1.49-1.46-2.31,1.87-.87-.77-2.44-1-3.56-.87-2.47-.2-5.26-1.4-7.6-4.7-4.78-3.47-8-5-13.68h-.42c-.12,2.32-.81,4.62-1,6.89.13,3.8,1.85,7.8-.26,11.25l1.61,3L60,352c-.5,2-1.34,3.23-1.09,5.05.08.92.56,2.05.19,2.72-.78,1.29,0,2.42.06,3.74s0,2.59.61,3.51C60.5,368.19,60.47,368.85,59.71,369.38Z"/>
        <path d="M106.6,252.06c0-1.83-1.15-3.85-.39-6.06.31-3.53,0-7.12,1.23-10.51.22-1.31,1-2.65-.2-4,.49-2.9,1.42-6.34,3.41-8.78-1.2-.89-3-2.17-.59-3.16-1.63-1.27-.14-2.63-.21-4a21.49,21.49,0,0,1,.67-4.56l-.73.17c.64-4.71,2.73-9.57,3.31-14.4-.14-1.3.09-2.22,1.71-2.24.26,0,.81-.84.71-1.06-1-1.85.79-3.16.82-4.82a2.51,2.51,0,0,1,1.42-3.18c1.56-.35,2-1.5,3-2.32s1.81-1.58,1.63-3.08c.14-1,1.41-2,1.82-3,.46-1.42,1.53-3.06,2-4.32-.37-1.72.82-2.21,1.88-2.92,3-2,4.63-9.24,6.7-12.25,3.25-4.7,7.55-9,11.58-13A153.88,153.88,0,0,1,258.21,99.82c47,1.42,92.7,26.25,119.47,64.9a18.33,18.33,0,0,1,8.31,11.7,6.93,6.93,0,0,0-7.71,2A184.92,184.92,0,0,1,363,155.11a19.28,19.28,0,0,1-12.18-9.77,43.48,43.48,0,0,0-10.92-7.16c-6-6.66-13.75-11.59-21.75-15.68a142.69,142.69,0,0,0-93.94-12.31c-13.06,2.8-26,7.64-36,16.52l-3.63-.44a135.72,135.72,0,0,0-57.22,66.37,130.25,130.25,0,0,1-7.85,29.87q-1.57,9-3.85,17.94a114,114,0,0,1-1.8,40.38,4.34,4.34,0,0,1,1.56,6.65,34.17,34.17,0,0,0,6.06,19.83c-.71-1.34-3,.06-2.77,1.55.46,2.72,3.76,4,4.27,7.28.33,1.66,2,3.12,2.55,4.74.33,1.47.5,3,.74,4.51l1.33.42c.19,1.79-.16,3.69,1.75,4.53a2.49,2.49,0,0,1,1.22,2.89c.09,2.6,2.27,4.72,2.42,7.38a31.68,31.68,0,0,0,8,13.36,6.67,6.67,0,0,1,2.34,3.22c1.45,1.53,3,1.53,5.13,2.13-3,.94.21,3.19,1.4,4.15,0,2.12,2.3,2.59,3,4.33l.67-.26c3.52,4.29,8.34,6.89,10.92,11.8.32,1,1.4,1.83,2.21,2.66.13.13.67-.15,1.15-.26,1.4,3,3.71.82,4.21,5.44,1.41-1.14,2-.17,2.78.8,1.29,2,5.19,2,5,4.75,1.42-.52,2.06.16,2.85,1.25,1.76,2.11,4.58,3.32,7,4.68.89.5,1.74,1.13,2.89.65.19-.08.56.11.79.27,2.72,3,6.6,3,10.19,4.13a9.62,9.62,0,0,1,3.56,1.62c1.07,1.09,1.68,2.79,3.34,3.07s3.33,1.26,4.89,2c1.32-.95,2,.5,3,.76,1.51-1.06,1.51-1.06,2.39,1.31,7.09-1.06,2.73,1.06,7.45,1.31,3.49-.11,5.74,2.07,9.06,2.15a1.93,1.93,0,0,0,1.38-.31c1.22-1.2,2.36-.37,3.56,0a28.47,28.47,0,0,1,4.36,1.14c1.29.59,2.86-.69,3.89.77,2.06-1,3.75.69,5.65.92,4.73.59,12.8-1.2,17.51-2.13L305.7,410A32.15,32.15,0,0,0,322.92,402a94.62,94.62,0,0,0,11.71-9.79,49.64,49.64,0,0,0,25.69-18c4.51-6.13,7.54-13.22,11.56-19.68,2.35-3.78,5-7.34,7.42-11.1,15.53-24.52,16.79-55.14,17.59-84.16.14-5.36.14-11.21-3.16-15.44.4,1.09,1.83-.42,1.85-1.58l.11-6.74-11.76-46.91a5.12,5.12,0,0,0,5.22-4.32A63.88,63.88,0,0,1,400.68,224c1.72,1.61,2.4,4,2.92,6.35,4.69,20.85,2.77,42.56.82,63.84-.7,7.57-1.46,15.38-5.1,22.06-1.74,3.21-4.21,6.71-3,10.16l-7.74,18.25c-.57,1.34-1.72,3-3.09,2.45-1.2,5.78-4.68,13.05-9.46,16.6-1,1.31-1.76,2-3.67,1.67,1.31,1.1,1.41,1.9.11,2.66a9,9,0,0,1-2.17,2.76c-.31.3-.87.58-.9.9-.15,2.15-1.8,2.87-3.33,3.83l1.22.51-4.18,6.13c-.63.91-1.23.83-2.65-.45a6.27,6.27,0,0,1-1,3.89c-.35,1-.53,2-2,1.69-2.16,1.14-3.25,7.22-6.27,4-1.51,2.19-2.51,6.37-5.72,5.69-.71.62-1.19,1.39-1.75,1.46-3.17.4-4.81,2.69-6.74,4.88l-.75-1.73c-.4.41-.84.68-1,1.06-.65,2.4-2,.49-3.73.79l-.09.48,1.5,1.19c-1.9,1.93-3.44,3.69-6.35,3.15l-.07-.38c-1,2.27-1.3,2.1-3.5,2.08-6.68,8.17-5.86,2.71-12.82,5.79-.57,2.16-4.18,1.28-5.57,3.13-.59.66-2,.55-3.07.8-1.82.26-2.26,2.22-3.93,0-1.22.81-2.42,2.8-4,2.32-1.15-.88-2.43.32-3.64.51a1.79,1.79,0,0,0-.77.77c-1.11,1.95-2.79-1-3.93.95-1.61-1.42-2.1,1.55-3.85,1.06-3.31-.59-10.22,4.33-11.3.24a3.3,3.3,0,0,1-3.14,1.64c-1.08,0-2.13.82-3.26.1-1.25.7-2.4,1.85-3.88.63-1.54-1.05-3.32-1.05-5-1.39a2.22,2.22,0,0,1-1.21-.55,5.06,5.06,0,0,0-5.72-1,1.29,1.29,0,0,1-1.06.07,3,3,0,0,0-4.21.26c-1.9-2.76-3.81.75-5.78-1.14-1.29,1.49-1.42,1.44-3.12.56-1.1-.58-3.12-.16-3.8-1.42-.52-1.64-.73-1.79-2.31-1,.33-3.09-5.53-.3-6.18-4.26-1.29,1.24-2.41.9-3.71.56-2.15-.89-5.31,1-6.84-1.15a1.18,1.18,0,0,0-1-.52c-2,.23-3.28-1.32-4.9-2a6.54,6.54,0,0,1-3.25-2.8c-.94.47-1.64.31-2.45-.87-2.82-2.89-8.94-1.12-11.73-3.73a4,4,0,0,0-2.74-2c-2.07-.64-2.89-2.82-5-3.45-1.13-.49-2-1.57-3.37-1.6a1.48,1.48,0,0,1,.65-2c-1.58-3.34-3.7.08-5.17-2.47-2.23-.71-3.67-2.91-6.05-3.2-1.37-.33-3.28-.51-4.31-1.49-.87-2-3.26-2.19-4.37-3.79-.28-2.5-4.09-2.74-4-5.37-.22-1.54-.4-2.89-2.25-3.19-.17,0-.45-.25-.43-.34.23-1.93-2-2.19-2.48-3.58-2.13,0-1.44-1.87-1.89-2.94-.31-2-2.35.14-2.2-1.85-.33-2.16-3.07-3.36-4.25-5.09-.39-2.24-2.38-1.22-3.84-1.89,1.49-1.45,2.06-2.23-.18-3.32-2-.71-.47-3.75-2.84-4.54-.3-.11-.49-.49-.94-1l1.63-.28.06-.3c-1.79-.58-4.15.19-4.66-2.15-.93-1.75-3.37-.38-2.57-3.51-2.37-.36-3-1.67-2.07-3.9a1.57,1.57,0,0,0-.3-1.36c-1.22-1.29-2.23-2.65-2-4.52.19-1.31-1-1.54-1.53-2.29s.5-1.77-.63-2.67-1-3.09-1.6-4.37c-1.4-2.23-1.41-2.22,0-4.41L116,323.33a5.77,5.77,0,0,1-.69-4.37c-1-.41-1.31-1.63-1.36-3.06,0-.31-.62-.76-1-.86-4.34-1.17.53-3.7-1.56-5.84l1.13-1.07c-1.64-3.1-1.42-7.06-3.78-9.75-1-1-1.74-3.57.8-3.13-3-6.48-3.17-13.24-2.73-20.22,0-.73.17-1.33-.61-1.76-1-1.73-1.16-4.14-1.52-6.12-.46-2.55,1.42-5.09.53-7.54-.6-2.39.38-4.68,1.36-6.76"/>
        <path d="M237.79,136.68c-.27.92-.6,1.93-.8,2.83-1.88,1.64-1.21,4.09-1.78,6.1a9.27,9.27,0,0,0,1.18,7.24c.46,1.65.79,3.5,1.13,5.19-.37,2.42,1.21,4.12,2.31,6a2.64,2.64,0,0,0,2,1c1.8,0,3,1.19,4.4,1.88.31.15.36.76.61,1.11a3.12,3.12,0,0,0,.93,1c1.1.76,1.88,3.65,0,3.79-1.15.12-2.37.45-3.34-.58-.09-.1-.28-.21-.38-.18-2.05.59-2.6-1.28-3.73-2.22.17-.5.34-1,.57-1.62-2-.42-8.47-.67-8.82-2.92a3.34,3.34,0,0,0-1-2.66,12.85,12.85,0,0,1-2.59-5.08c-.3-1.07-1.18-2-.89-3.25-.19-.72-1.63-1.41-2.32-1.84l.68-.31a8.86,8.86,0,0,1,.68-2.31c1.3-2.7-.16-5.24,0-8.09-.64.22-1.53-.81-1.36-1.4,1-2.87,2.35-5.66,3.19-8.59a2.84,2.84,0,0,1,1.77-2.11c.18-.07.42-.21.45-.36.47-1.6,2-2.4,3.15-3.35a2.16,2.16,0,0,0,1.93-1.72c.5-1.11,3.06-1.47,4.18-.66-.07-.68-.34-1.37-.13-1.81a30,30,0,0,0,3.5-2.62l1.14.57c.73-1.61,1.45-4,3.64-2.79a1.71,1.71,0,0,0,1,0c3.17-.43,6.48-1.69,9.62-1.68a1.77,1.77,0,0,0,2.77-.4c1.72.82,3.22,1.55,4.74,2.23,1.72,0,3.42-1.14,4.93.52,1.53.6,3.49.17,4.12,2.34,1.53-1.06,1.77.6,2.27.88-.57,2.58.7,4.35,2.36,1.61.1,0,.26-.09.27-.06a6.2,6.2,0,0,0,3.95,2.53c2.08,1.67,4.21,3.7,5.19,6.27a29.36,29.36,0,0,0,2.43,4.66c1.15,1.5,2.18,2.81.88,4.56,1.83,1.5,2.95.32,1.51,3.22-.9,2.57-2.47,5.12-3.09,7.65.93.81,2.23-.74,2.94.9a2.12,2.12,0,0,0,1.48.66,4.23,4.23,0,0,1,4.09,4.32c0,2.71,1.47,4.59,3.8,5.87-.18,1.41,1.67,2.57.52,4.1-.1.13-.07.37-.12.7,3.08-.46,2.95,4.58,3.71,6.57.34,1.14,1.82,1.77,1,3.09-.94,2.14-2.63,1.75-4.41,1.7-.83,0-1.44-.26-1.45-1.27-.39-1.44-1.87-2.41-2.59-3.71-.54-.81-1.49-1.4-1.45-2.63,0-.28-1-.6-1.66-1,.24-.57.5-1.16.82-1.94a2,2,0,0,1-2.18-.57c.05-1.27.07-2.3-1.61-2.55-.27,0-.43-1.2-.56-1.86-.24-1.25-1.73-2.07-1.21-3.6.05-.12-1.42-.31-1.44-.12-.08,1.13-1,1.56-1.61,2.31-2.29,3-5.71,4.73-8.25,7.32-2.09-.21-2.71,2.41-4.84,2.43-1.38,0-2.72,1-4.12,1.34-1.09.2-2.88-.34-3.85-.48-1.57,1.22-2.38.8-3.14-.69-.13-.32.49-1,.87-1.6-2-6.27,8.95-1.77,10.32-6.13a2.18,2.18,0,0,1,.66-1.11c2.33-1.2,2.56-4.08,5.54-4.17.41-1.89-1.56-7.65.83-7.83-1.24-4.25,6.1-3.19.72-10.31-.32.43-1.19-1.73-1.46-1.91-2.72-2,.71-4-2.5-6.53-.25-.29-.75-.44-.88-.75-1-2.47-3.38-3.55-5.19-5.16-1.33-1.61-5.22.39-4.87-2.59-1.15,1-2.12,1-3,.06a52.31,52.31,0,0,0-6.07-1,1.37,1.37,0,0,0-.86.08c-2,1.33-4.08.37-6.24.13-.49,1.29-.91,2.49-2.52,2.76-2.79.74-5.3,2-8.1,2.9.07.53.42,1.31.18,1.83-1.32,1.56-6,3.21-4,5.85Z"/>
        <path d="M400.7,125.46c-.14,3.22,4.62,3.12,3.95,6.21a.59.59,0,0,0,.22.51c1.38.45,2.13,2.08,3.81,2,.22,0,.75.7.67.9-.53,1.41.44,2.15,1.28,2.83,2.76,2.25-.11,4.67-2.55,5.05-.5-.13-.74-1.08-1.25-1.47-1.59-1.46-4-1.77-5.09-3.75-1.28-2.62-4.19-.88-5.06,1.16.87,1.16.66,1.15-.55,1.77a11.17,11.17,0,0,0-3.14,2.81c-.5.6-.66,1.39-1.68,1.36-2.06.82-3.22,3.35-4.78,4.91a1.55,1.55,0,0,0-.3,1.31,7.68,7.68,0,0,1,.4,4.82,3.85,3.85,0,0,0,.19,1.81,2.61,2.61,0,0,1-2.21,3.36c-3.72.33-2.83-4.26-5.72-5.22-.8-.52-1.15-2.29-1.45-3.29l-.42.06-.79,1.07c-5.72-9.12-2.2-5.67,5-6.92,3.42-1.44,3.14-6.53,7-7.71.37-.11.66-.8.81-1.28.44-2,2.4-1.8,3.76-2.53,1-1.49,2.63-2.83,2.28-4.81-2.71-.47-3.66,2.91-6.54,2.13-1.22,1.23-3,.37-4.26,1.05-2.95,1.31-6.06,2-8.94,3.29-3.69-1.43-6.6,3-10.18,1.11-.19-.07-.46-.37-.45-.54.13-1.51-.57-3,.3-4.58a19.87,19.87,0,0,0,1.59-4.66c.38-1.23.15-2.69.59-3.88,1.21-1.36.83-2.93.68-4.49a1,1,0,0,1,.44-.82c1-.31.91-1.05,1-1.86,0-1.85,1.77-3.29,1-5.14-.27-1-.67-1.33-1.64-1.12-2,.3-1.23.8-1.76,2.29a25.94,25.94,0,0,0-2.62,2.85c-.93,1.23-1,3.75-2.31,4.62-2.19.53-2.25,3.07-2.42,4.85,0,.91,2.23,1.81,1.09,2.72-1.87,1.18-1.56,6.33-4.59,3.93-.26-.24-.7-.59-1-.52-2.52.63-.13-3.08-5.72-4.64-2.73-1.45-6.27-4-2.82-7,1-.56,1.82-1.72,3.33-.52.66.54,2.11.09,3.4.09a3,3,0,0,1,2.77-1.88c1-1.93,1.18-4.18,3.51-5.17.61-.26,1-1,1.52-1.51.17-.18.24-.51.43-.58,2.06-.74,3.36-2.33,4.6-4,.08-.11.24-.16,0-.3a23.9,23.9,0,0,1,.37-2.56c.28-3.27-4.27-4.46-5.13-7.29-.14-.94,2-3.84,3-4s2,.89,1.72,1.69.13,1.16.7,1.53a24.45,24.45,0,0,1,2.87,2c.26,2.27,2.37,2.52,3.79,3.52,1.73,1.72,4.23,2.35,5.79,4.14,1.16,1.49.32,3.31-.05,4.93-.42,2.9-2.55,5-2.54,8.09-.05.28.09.74-.05.84-1.35,1-.95,2.71-1.76,4-.55.85-.37,2.16-.55,3.26.18,1.65-1.65,3.6-.34,4.87s2.32-.62,3.34-.85c2.37.24,3.43-2,5.53-2.49,3.31-.38,6.43-2.6,9.78-1.32C395.23,126.54,397.56,124.46,400.7,125.46Z"/>
        <path d="M407.19,209.1c-1.93-.91-2-1.3-1-3.11a7.75,7.75,0,0,1,3.21-5c1.83-.42,2.48,2.61,3.34,3.82.67,1.07.19,3,1.33,3.69,3.12,1,5.92.4,9.16.32a3.9,3.9,0,0,1,3.23-2.25c.89.89,1.83.67,2.92.45,1.26-.31,2.69.15,3.95-.16,1.36-1.19,5.34-1.66,4.64-3.94-.76-2.44-.67-5.19-1.93-7.43-.25-1,2.25-4.27,3.23-4.34,1.22-.08,2.87,2.09,2.64,3.53-.09.58-.26,1,.29,1.57.22.22-.34,1.2-.53,1.78.33,1.17.69,2.46,1.05,3.78-.8.11.42,1.11.34,1.93-.68,3.56,5.46,4.68,1.34,8.18.89,1.78.76,2.23-.85,3.31-.79,1.55-3,2.14-2.86,4.2-1.35.24-1.73,1.24-2,2.4-.52.67-1.92,1-2.4,1.83s-1.24,1.21-2,1a19.46,19.46,0,0,0-2.41,2.08c0,1.22-.82,1.3-1.65,1.44s-1.67.25-1.7,1.57c-.2.86-2.35,1.53-2.81,2.42-.42,1.12-1.12,1.55-1.94,1.33-1,1.35-2,2-2,3.7a2.16,2.16,0,0,1-.74.14c-1.06-.18-1.81-.13-1.89,1.29,0,.52-.66,1-1.21,1.8,3.46.36,6.65-3.85,9.71-1.15a5.32,5.32,0,0,0,4.3.92,1.48,1.48,0,0,1,1.52.48,9.51,9.51,0,0,0,4.06,1.4,1.89,1.89,0,0,0,1.11-.65c.63-.51,2.89-1.34,3.46-.56.28,1.59,1.69.78,2.34,2.51.35-2.69,1-5.12.83-7.48-.09-2.1-.07-4.42,1.63-5.81,2.35-1.21,1.58,2.33,1.34,3.51-.15,2.06,2.45,6,.53,7.15l1,3.24c-1.91,1.21,0,4.86-.88,6.78-.46,1.33-2.07,1.7-3.69,1.26-1.9-.66-1.67-3.71-1.9-5.59-1.29.42-2.07.4-2.88-.56-4.62-1-10.18.29-14.8,1.24-1.73,1.77-3.58.78-5.5.48-2.88-.61-7.16,1.35-8.85-1.93-1-2.08,2.52-.55,1.63-2.89-.21-1.19-1.13-2.54-.89-3.72,1-1,.5-2.23.48-3.33-.51-3,3.13-1.12,3.18-3.51,1.1-.65,1.73-1.13,2.67-1.72.92-.4,1.87-.72,1.88-2,2.12-1.66,3.07-4.51,5.34-6.06,2.8-1.25,4.82-2.71,6.16-5.67-.4-2.3-.91-2.64-3.59-2.13-2.46.52-5.65-.28-7.7,1.16-.23.15-.6.39-.73.31-1.44-.87-2.73-.18-4,.41.26,2.31-.75,4.27-.49,5.47a5.35,5.35,0,0,1-4.82,1.92c-1.51-.45,0-2.78-1.08-3.78-1.21-1.47-.91-3.24-1.2-4.89C407.58,213.09,406.2,211.46,407.19,209.1Z"/>
        <path d="M450.72,452.14c1.09,1.16,2.64,2,2.75,3.76-1.77.19-2.9-1-4.85,0,.55.15.81.31,1,.24,2.22-.87,4.81,2,2.82,4-1.06,1.33-1.13,3.32-3.07,3.78-.78.31-1.39,1-2.31.69.12-1.41,1.94-1.63-.24-2.22a3.83,3.83,0,0,0-3.49.08c-.18.1-.59.09-.68,0-.78-1-1.44-1-2.16.07-.6.41-1.69.11-2.42.17a5.65,5.65,0,0,1-3.22-.53c-2.24-1.09-5.74-.39-7.57-2.32-.41-1-.91-1.28-1.74-.41a2.24,2.24,0,0,0-2.67-1.16c-2.49.4-4.88.39-7-1.4-1.51-1.36-3.84-1.83-5.27-3.28-4.22-5.13-6.62.44-9.9-10-.65-2.28-1.55-4.86-1.2-7.21,1.51-.45,1.15-2.18,2.11-3,.15-.13.32-.47.25-.61-.37-.79.17-1,.68-1.33a12,12,0,0,1,4.44-4c3.31-3.61,11.88,1.92,15.52,3.71,1.45-.9,1.45-1,.56-2.39-.63-1.41-.54-2.7-.84-4.4l1.08-1c-.94-.55-1.48-.49-1.85.53-1.33,2.57-3.49-1.89-2.56-3.38.9-1.69.44-4.8,3-4.84,2,.31,3-4,4.23-2.42.07.33.06.89-.14,1-1.68.85,1.17,3.11-1.34,3.34-1.3,0-1.32.69-1,1.73l3.29-.5,1.51-1.76-.57-.79,1.64-1.17-1.1-1,.17-.12c-2.91-3.87-.26-1.54,1.38-3.82,1.49-1.5,4.06.13,5.94.08a12.9,12.9,0,0,1,5.39,5c1.17,4.12,5.56,5.91,6.17,10.24a19.26,19.26,0,0,1,1.68,8.06c.85,1.88.18,3.93,1.32,5.85.5,1.62-.62,3.86.93,5.29,1.7,1.78-.7,3.63.65,5.6C452.71,451.85,452.48,452.15,450.72,452.14Zm-1.36-3.91a3.05,3.05,0,0,0-1.14.57c-.75.31-1.39-.11-1.15-.86a2.34,2.34,0,0,0-.8-2.76c-.83-1.43-.45-3.4-.66-5s.5-3.35-.24-4.7c-1.61-2.89-1.87-6.18-3.42-9.11a4.13,4.13,0,0,0-3.13-3,10.71,10.71,0,0,0-5.84-3c-3.56-1.52-5-2.7-7,1.34,2,1.41-.64,2.23-1.57,3.5,2.8,1,4.22,1.41,1.2,4a4.72,4.72,0,0,1,4,4.65c-.08,1.23.13,5.13-2,3.93-.93-.6-2.3-.7-2.53-2.15a.63.63,0,0,0-.45-.35c-2.06-.08-2.45-1.23-2-3,0-.05-.13-.13-.4-.39-.08,3.51-2.37.18-3.53,2.53-1.4-.8-2.32-2.18-4.17-1.37-.37.16-.93-.13-1.71-.26a11.85,11.85,0,0,0,1.69-1.73c-.84-.92-3.53-1.83-2.94.37.07.29.09.76-.08.92-1.27,1.23-2.22,3-4.48,2.54-.19,1.2,2.28.83,1.1,2.35,1.05.27,2.24.28,2.24,1.63,0,.95-.31,1.82-1.33,1.73,1.52,1.7.84,4.07,2.6,5.48,3.56,4,9.45,3.29,13.68,6.42,1.05.64,2,1.13,2.2,2.36,1.65,0,3.16.84,4.54-.33a3.07,3.07,0,0,1,4.05.16c2,2,4.86-.42,7.16.88,2.63,1.62,4-1,6.34-1.71-2.29-4.92-1.36-.05-4.08-.07a3.56,3.56,0,0,1,.26-2.32C445.84,448.48,449.55,451.71,449.36,448.23Z"/>
        <path d="M105.72,81.74c3-.63,2.31,3.3,3.58,5,2.2,5.74-3.08,10.76-7.61,13.26-2.31-.23-5,1.3-6.8-1.52-1.78-1.64-4.92,1.84-2.53,3.26,2.07.9,1,2.06,1.44,3.71,2.44,5.3-3.84,7.81-7.84,9.24-3.23.43-7.5.68-9.79-2.1-1.35-2-4.37-3-4.56-5.51s-1.66-4.28-3.34-6c-1.6-2.5-.86-6.08-2.79-8.59a5.77,5.77,0,0,1-.74-2.62,13.85,13.85,0,0,1,.18-5.63c.25-.71.37-1.13-.28-1.62-2.12-1.92,1.89-5-1-8.63a1.24,1.24,0,0,1,0-.88c1.37-.27,1.19-1.83,2.06-2.44,2.33-2.12,5.3-.7,8-.64a52.2,52.2,0,0,1,11.72.55c1.83.32,4,0,5.59,1.67.26.3,1.12,0,1.68.1,2.45.35,3.75,2.54,6.22,3.22,1.74.61,4,1,5.13,3.06.5.67,2.62.88,3,1.75A1.22,1.22,0,0,1,105.72,81.74ZM92.79,93.37c.8-.14,1.75-.48,1.87-.29.77,1.22,1.89.86,2.92.8.7,0,1.54.38,2-.7.28-.64,1.44-.82,1.08-1.92-.05-.17.14-.46.26-.66,1.71-2.6-.14-5.15-1.94-7-1.37-2.81-4.44.62-4.36-2.09.13-3.19-3.31.88-4.41-1.44-2.45-2.44-6.42,0-9.23-1.74-2.33-1.76-4.53,2.42-6.17-.73L74,79.3l-1.3-1.7A15.28,15.28,0,0,1,72.35,80c-1.43.69-1.55,2.09-1.72,3.33-.21,1.49-1.16,3.1.31,4.5.87,3.36,3.13,6.4,2.56,10-.5,3.26,1.86,5.57,4.69,6.85,2,.89,3.74,2.5,6.1,1.21,2.51-2.23,4.68-5.49,3.94-9.07a3.67,3.67,0,0,1-1-3.37c-.39-2.21-5.45-3.32-3.52-6C85.1,88.68,86.4,90,87.85,91A11,11,0,0,1,92.79,93.37Z"/>
        <path d="M429.05,107.14c-.33,1.9-.46,2-2.32,1.61-2.48-.55-5-1.11-7.41-1.81-1.55-.45-3-1.2-2.9-3.21a1.2,1.2,0,0,0-1.11-1.32c-1.92-1-1.07-6.45-.44-8.23.4-3.11-4.28-.15-5.82-1.26a2,2,0,0,0-2.27-.53,28.65,28.65,0,0,1-5.89-4.46c-.81-.26-1.48-.49-1.44-1.55-2.09-2.38-4.36-5.2-6.62-7.44-.47,1.27-1.21,2-.92,3.24.29.88-.18,1.06-.88,1.08-2,0-2,0-2.51-1.62-3.24-1.56-5.91-3.28-6.17-7.42.49-1.06,1.3,1.16,2.17.29.16-.16,1.38.73,2.23,1.2l1-.83c1.2,1.15,2.65,3,4.25,3.28,1.2-1,2.22.16,3.32.28,1,.61,1.14,2.17,1.68,3.16,1.48-.3,2.6-.68,2.72-2.24,1.38-1.49,1.65-3.47,2.4-5.25a17.74,17.74,0,0,1,4.64-2.74c3.65-1,5.8-4.35,9.08-6,2.5-.74,5.42-1.9,8.08-1.06.33.15,1.11-.45,1.55-.84,1.47-1.36,4.36-2,5.51-.16a65.62,65.62,0,0,0,9.17-2.15c.81-.27,1.34-.14,1.68.64,1,2.28,4.08.13,5.45,2.31,2.5,2.78-2.72,4.63-1.53,8.24a9.59,9.59,0,0,1-.08,1.6c-.55,4,.94,8.37-1.15,12.06a4.49,4.49,0,0,0-.52,2.85c.88,7.8-6.22,11.65-9.46,17.61C433.68,108.87,433.09,105.26,429.05,107.14Zm10.7-39.36c-3.83,5.11-4-2.1-6.37.18-.48.64-1,1-1.73.41a.93.93,0,0,0-.8-.11c-1.44.87-3.37.43-4.66,1.91-.55.63-1.86.53-2.63,1-1.78,1.52-4.43,1.28-6.09,2.85-1.67,2.11-4.24-.84-6,1-1.29,1.14-3.32,1.33-3.88,3.53-1.09,2.4-5.29,4.29-2.72,7.55,1.79,1.23,3.59,4.69,6.06,3,1-.62,3,.22,4.15-.4,1.33-.91,2.6-1.88,4.32-1.89.15,0,.32-.21.45-.35,2.86-2.47,2.44,2.46,2.73,4,1.06,2-.67,1.28-.93,2.73.08,2.46-.73,5,.9,7.3.33,1.07.13,2.5,1.76,2.31a8.9,8.9,0,0,1,4.43.57c.95.45,2.35,1.35,2.71-.78,4.11-2.56,4.38-5.53,4.25-10.06l1.55,1c4.37-8.75,1.2-8.72.55-16.72.65-3.72-1.83-2.06,1.21-6.07l.23.34C441.18,70.69,442.06,68.6,439.75,67.78Z"/>
        <path d="M163.58,407.79c.29,1.26.22,2.09-1,2.9-1.85,1-2.1,3.21-2.69,5.09-1,1.38-.39,2.87,1.36,3,2,0,3.93-1.43,5.78-2,1.47-1.56,3.91-1,4.68-3.3,1.48-2.71,7.83-5.27,8.49-.72-.06,1.43.27,2.84-.3,4.33-.23,2.13.38,4.63-.52,6.81a11.65,11.65,0,0,0,.61,4.65c.4,1,1,1.81-.49,2.85,4.57,2.18.3-2.63,5.47-1.92a3,3,0,0,1,1.18-3.39c2.8-.85,5.54-12.61,8-8.93,1.41,3.08,5.64,1.41,7.32,4.42s-1.7,3.29-3.09,1.05c-.34,1.43-1.15,1.88-2.49,1.42-.91.07-2.11,1.88-2.23-.2-1.49,1.24-3.27,2.2-2.49,4.64-3.67,1.37.55,4.9-3.33,6.66-3.28,1.18-1.27,3.45-3,5.09-4.51,3.52,4.43,4.25,3,8.55.26,1.45-.88,1.36-1.88,1.6-.46.22-1.12.78-1.32.65a6.49,6.49,0,0,1-2.09-3c-1.42.88-2.07,1.82-3.62.64-1.17-.7-1.94-1.88-3.5-2.19-1.09-.22-2-1.5-2.93-2.32-.1-.09-.23-.27-.21-.38,1-2.4-2.94-5-.49-6.68a2.19,2.19,0,0,0,.68-1.77c-.53-2,.81-3.65.71-5.47-.67-1.57-.55-2.29.65-3.61.2-.22.42-.71.32-.85-1.17-1.61-.11-2.92.46-4.33a5.18,5.18,0,0,0,.11-2.47c.79-1.15-.1-2.26-.08-3.39,0-.31-.51-.64-.79-1-1.61,1-.35,3.77-2.6,3.95-1.88.65-2.74,3-4.87,3.36-1.73.52-3,2.13-4.92,2.12a23.1,23.1,0,0,0-2.35,0c-2.15,1.21-6.5.9-7.23,3.53-.17,1.42-.77,1.69-2,1.06-2.09-1.07-4.34-1.89-5.83-3.87-1.36-.7-3-1.16-4.37-1.9-1.32-1.62.31-5,2.75-5l.27-.61,7,1c1-2,2.7-3.6,3.1-5.69-.08-.87.31-1.28,1.07-1.7,1.85-.75,2.6-5.59,4.86-3.7,2-4.32,1.27-4.92-2.57-7.36-1.49-.7-.74-1.72.11-2.61.85-1.06,1.75-1.1,2.44,0,.65,1.43,2.34.78,3.38,1.69,2,1.61,4,3.29,6,4.94.68.57,1.81.83,1.59,2-.06.37-.53,1-.72,1C166.94,406.14,165.43,407.38,163.58,407.79Z"/>
        <path d="M78.87,232.76c.16,1.42-1.7,3.34.37,3.85,1,.4,2.31.21,3.33.46a4.25,4.25,0,0,0,4.21-.17c.64-.35,1.53-.56,1.79.7.13.6,2.45,1,3.37.63a6.51,6.51,0,0,0,2-1.47c1.87-.12,3.53-3.94,5.19-2,.32,3,3.61,6.34.67,9-.77.47-.84.93-.24,1.63,1,1.26.2,3,.13,4.39-.44,2.47-3.65,2.72-5.59,3.56-.78.27-1.46.42-1.54-.78,0-.9-.72-2.15-.48-3,1-.85.45-1.75.22-2.68,0-4-3-5.73-6.68-5.35-2.84-.43-5.81-1.4-8.71-.89-1.84.76-1.84.76-2.89-.84a2.51,2.51,0,0,1-2.68,1.87c-.35,0-.89,1.07-1,1.73-.32,2-1.77,3.54-2.33,5.34-.23.93-.81,1.15-1.65.82-3.78-1.77-.58-6.44-.3-9.41.82-3-1.06-6.85,1.47-9.29a13.9,13.9,0,0,1,3.33-2c.78-.36,1.7-.33,1.88-1.53,0-.37.78-.79,1.27-.92,1.64-.18,1.9-2.23,3.66-2.45a7.07,7.07,0,0,0,3.31-1.68c1-.79,3-.38,4.23-1A8.74,8.74,0,0,1,88.43,220c1-.82,3-1.61,3.31-2.84a2.59,2.59,0,0,0-2.85-1.63c-1,.11-1.59-.22-1.64-1.2-.18-1.6-1.33-.95-2,.24a7.7,7.7,0,0,0-5.64-1.39c-1.93,0-3.69.07-5.24,1.34-.82.34-1.05.72-.94,1.67.06.57-.71,1.24-.91,1.55L69,216c.67-3.48,1.66-16.65,6.14-16.16,2.86.07,1.75,1.43,1.93,3.37.81,5.08,3.82,5.17,8.27,5,5.09.26,9.8,1.7,14.75,2.9,3,.53,2.57,3.73,2.28,6-.37,1.19-.25,2.89-1.29,3.69-2.17,1.19-4.37,2.47-6.54,3.57-3.27,2.63-8.1,2.84-11.39,5.71-.53.33-1.19.9-1.67.79-1.56-.35-2.19.67-3,1.58Z"/>
        <path d="M127.49,405l2,.47c-1.4,4.27-2.36,5.54-6.48,2.62.33-1.65-1.63-2-2.31-3.25-.3-.54-.7-1-1-1.56-.11-.16-.19-.45-.32-.47-2.42-.33-2.69-2.91-4.42-4-3.07-1.25-.68-4.2.28-6.18,1.47-3,4.88.25,7.13.27,1.58-2.82,3.61-4.24,6.14-5.92.15-1.65,1.73-1.45,2.66-2.11,1.11-.83,1.12-2.28,2-3.37-.66-1.55-1.36-3.09-1.95-4.67-.21-1.26,2-2.85-.29-3.47-.65-.73-1.3-1.9-2.22-2.39-.94-1.86-1.67-3.82-2.77-5.59l-.36.14c-.28,1.16.12,3.36-1.76,3a19.48,19.48,0,0,0-6.46-.25c-1.57.56-2.07,2.52-4,2.69-.74.16-1.39,1.09-1.94,1.79a4.6,4.6,0,0,0-.71,4.88,2.06,2.06,0,0,1-.15,1.7c-1,1.1-5-.8-4.07,1.87,1.46,3-1.46,3.82-3.55,1.85-2.61-3.12-3.82-7.05-6.42-10.22-1.78-3.35,1.69-4.62,4.39-5.49-.1,1.52-.35,2.79,1,3.37.64.26,1.53.74,1.94.5.68-.39,1.55-1.35,1.47-2-.27-2,2.29-2.18,2.51-3.88.21-2.52,3.09-.22,4.15-2.15a2.28,2.28,0,0,1,1.58-.68c5-1.63,9.57-5.64,14.39-.61.81.83,1.58.1,2.23.54s.69,1.55,1.92,1.3c.32-.07,1,.77,1.23,1.31a3.53,3.53,0,0,0,1.59,2c2.61,1.82,2.67,5.43,3.82,8.16.92,1.59,2.18,2.88,1,4.81-.19.38-.34,1.13-.14,1.31,1,.87.25,1.33-.3,1.92-1.45,1.55-1.25,3.94-1.86,5.89-1.3,2.23-2.88,4.63-5.43,5.8a2.41,2.41,0,0,0-1.2,3.43c-6.58-.59.06,4.67-3.64,6.25Z"/>
        <path d="M421.63,303.21c-1.32.5-2.36.73-3-.69-1-.71-2.34-1.34-3.43-2-5.68-1.84-5.68-4.11-3.39-9.2a5.38,5.38,0,0,1,1.34-4.44c.39-.43.06-1.52.06-2.47-2.26-2.17,1.95-6.33-.92-9.38-.55-1.38,2.26-2,.7-3.32a.91.91,0,0,1-.2-.54c0-.74,1.9-2.74,2.68-2.74s1.75,0,2.63,0c4.53-.25-.24,6.38,3.69,6.2,4-.45,8-.85,11.91.37,2.89.07,6.24,1.51,9,.47,1.84-1.6-.74-3.37.61-5.19a1,1,0,0,0,0-.72c-.78-2.07,1.61-4.64,3.54-3.66,1,.63,2.47,1.82,2.47,3-.94,3.27-.36,6.66-1.34,9.92-.23,1.07-.81,2.06.05,3.2.29.39-.07,1.31-.22,2-1.51,3.46,2.85,3.44-.44,5.2,1.52,3,.33,11-2.42,12.7-.52.87-1.39,2.3-2.37,2.64-2.19.66-4.5.91-6.69,1.57-1.17.62-3.06.63-3.22-1,1.73-3.72,5-6.18,8-8.81.33-.28.91-.26,1.39-.37.25-6,1-6.77-1-7.93,3.09-2-.82-3.59.95-6.14-.4-1.07-1.5-.54-2.34-.79s-1.47.05-2.23.75c-.81,1.2-5.65.62-4.13,2.89,1.38.65.91,2.07,1.4,3.07.16,1.12,2.25,3.73.56,4.16s-1.68,3.07-3.07,3.67a3.81,3.81,0,0,1-3.06-2.16c-.58,1.45-1.59,2.77-3.06,1.95-.88-1.34-.36-3.76-.73-5.37-.4-2.17,2.61-2.18,4-3.51v-3c-1.47-.14-2.78-1.67-4.14-.73-.24.18-.8,0-1.19-.07-1.8-.14-8-3.29-7.66-.06a40.9,40.9,0,0,0,3.82,17.1C421.79,300.42,421.26,301.94,421.63,303.21Z"/>
        <path d="M279.81,454.52c-1.86-1.53-2.43-3.08-.16-4.32,2.61-1.43,2.85-4.86,5.23-6.68.85-1.1,2.87-1.7,2.73-3.32-1.23-4.72-6.41-1.6-9.65-1.45-1.46.06-3.68-1.24-2.2-2.88.88-4.18,2.13-1.6,5-2.05a5.76,5.76,0,0,1,2.84-.35,3.23,3.23,0,0,0,2-.67c3.58-1.59,5.07,2,6.29,4.61l-.27.24a2.86,2.86,0,0,0,1-.07c.8-.37,1.12.14,1.71.58,1.63,1.2,3,3,5.3,3s.71-2.5,0-3.52-2.91-2.3-1-3.29c2.82-1.57-4.8-3.54,1.1-6.61.86-.4,1.9.35,2.87,0,3.75-1.13,7.51-3.55,11.33-4.07.55.69.73,2.54,1.68,3.28,4.22,4-16,4.08-10.75,8.13,1.39,1.1,1.38,1.1.29,2.49-1.47,2.09,3.54,1.15,2.84,5.81-.05,1.26.38,2.63.25,4,2.95,3.21-.11,4.2.55,7,1.73,2,4.66,1.21,6.88.34.81-.23,3.16.79,3.32,1.55-.23,1.82-3.77,3.3-5.44,2.45a5.53,5.53,0,0,0-6.81,1.32c-2.07-.17-3.78,1.49-6,1-1.78.08-4,1.29-5.87,1.77-2.39,1.17-4.58-.44-6.91-.4-1.95,0-3-1.82-4.15-3.21C282.09,456.7,278.61,458.08,279.81,454.52Zm10.56-1.33a5.3,5.3,0,0,0,.52,3.42c.57.83,4.32,1.24,5.28.71a16.29,16.29,0,0,1,7.51-2.92c1.83-1.31-2.11-2.73-2.87-3.63,3-3.89-3.87-4.37.66-7.14-1-1-1.47-1.07-2.75-.18s-3,.47-4.54.83c-.25.06-.61-.37-.92-.57-.08.88-.31,1.75-1.6,1.74-.21,0-.5.25-.63.46C289.71,447.86,287,452,290.37,453.19Z"/>
        <path d="M337.24,78.54l.38-1.63c2.71.58,4.48,2.29,6.42,4.13.9,1,.21,2.37,1.17,3.33.66,1.13,1.7,2.06,1.83,3.54.89,2.35,2.15,4.79,1.51,7.47-.05.27.36.75.67,1,1.62.89-.48,1.68-.7,2.82-.62,1.82-1.89,3.2-2.14,5.2a5.84,5.84,0,0,1-1.23,3.06,3.37,3.37,0,0,0-.7,2c-.11,1.4-2.59,3.14-3.9,2.59s-2.26.16-3.37.37c-1.49.53-2.94-.87-4.07.68a1.79,1.79,0,0,1-1.09.65c-3.26.27-6.79,0-9.11-2.61-1.66.36-2.83-1-4.32-1.26a97.22,97.22,0,0,1-9.52-9.52c-1-1.57-.49-4.15.39-5.61,1.37-1.79.21-3.61.51-5.37,1.08-3,4-4.86,4.77-8.06.57-1.91,1.54-4.12,3.74-5.08,3.19-1.27,6.49-1.42,9.69-1.88C331.25,76.57,335.63,74,337.24,78.54Zm1.88,25.07c.39-.35.51-.41.52-.48.85-5,2.44-9.92,1.64-15a.73.73,0,0,0-.23-.53c-1.17-.77-1.13-1.91-.83-3.13-3.24.42-.43-2.89-3.57-3.12a36.83,36.83,0,0,0-4.3-2.18c-1,.19-2.53.8-3.55.43-3.63-.85-7.78,5-10.26,7.31,3.45,3.09-2.81,3.7-1,6.85-1.08,3.52.36,6,.95,9.61,1.61,1.76,3.93,3,5.81,4.54,4,.89,8.67.43,12.1-2C338,105.24,339,102.94,339.12,103.61Z"/>
        <path d="M97.07,327.73c.14,1.27.65,2.66.49,3.9-1,2.42.61,4.38.69,6.67,0,.82-.11,1.44,1,1.74s1.31,2.19.1,3.23l-1.29-2.18c-3.91,2.54,2.46,2.64.6,5.22a1.19,1.19,0,0,0-.2.55c.1,1.73-1.4,2.54-2.21,3.73-1,1-2.6,1-4.08,1.27l.73,1.07c-1.6.23-3.28,1.41-4.75,1-1.94-1.78-3.8-3.63-5.86-5.27-3-2.18-3.06-6.25-5.11-9.26-1.12-1.95.1-3.87.5-5.81a2.16,2.16,0,0,0-.47-1.43c-1.72-2.51-.68-5.28,2.28-6,.33-.08.78-.16.92-.4.89-1.45,2.54-.9,3.74-1.67.59,1.62,1.51,3,1.81,4.55a14.77,14.77,0,0,0-.78,5c-.56,2-2.16,4-2.38,6.22.06,1,1.14,1.73,1.63,2.53,1.79,2.74,5.5-.56,6.59-2.5,1.4-2.2-.06-4.63.53-7,0-2.12,1.72-4.66.13-6.43l3-2-1.19-.81c.73-2.23,1.59-4.53,4.36-4.36,2.43-.42,4.75-1.84,7.16-.3,1.72,1,2.06,3.25,3.92,4.2a2,2,0,0,1,.77,1.36c.36,3.13,3.42,4.75,4,7.72,1.49,1.88.79,4.1,1,6.17.19,1.27,1.35,2.17,1.72,3.34.52,3.23-4.46,1.81-5.77,3.47,0,2.05-1.77,1.15-2.73,1.54-.13.06-.61-.46-.77-.78-3.59-7.42-4.18-5.92,1.34-12.48.67-2.23.74-5.32-2.2-6.23-1.34-.43-2.37-1.8-3.55-2.76l-5.11,3.39Z"/>
        <path d="M311.15,211.81a43.22,43.22,0,0,1-5.57,4.62,28.21,28.21,0,0,1-1.92,5.78c-.85,1.89-1.86,3.71-2.88,5.52l-1.95,3.49a4.91,4.91,0,0,1-.77,1.13,7.66,7.66,0,0,1-1.58,1,13.89,13.89,0,0,0-2.89,2.36l-7.12,7c-.48.47-.92,1.4-.3,1.7l-3.76.13c.07,3-.71,3.87-2.68,6.32-.47.59-1,1.1-1.89.48-1.07-.29-1.77,1.32-2.85,0-1.09-1-1.11,1.62-1.34,2-1.92-.16-4.44.73-4.95-1.7s-1.61-6.4,1.62-7.46c2-1,2.72-3.83,4.6-5,3.78-1.58,6-5.35,9.07-7.8,1.76-1.39,4-2.16,5.46-3.89a13.12,13.12,0,0,0,1.84-3.47c2-4.66,9.71-12.39,8.93-17.31-.5-3.11,1.79-1.78,3.49-2.75,1-.61,1.75-1.91,3-2.06,1.36.33,3.43-.24,4.21,1.15.12.83,1.26,2.07.06,2.52C309,206.25,310.51,210.47,311.15,211.81Z"/>
        <path d="M215.18,434.76c.67-2.36.52-5.08,2.61-6.51l-1.47-.32c2.31-1.65,4.47.58,6.66,1.18a20.22,20.22,0,0,0,6.36,1.08l.68-1.07c1.84.74,1.25,5.11-.79,5.31-2.26,0-2,2.86-2.52,4.42,0,1.26.69,1.94,1.24,3.33,1.62-1,3.41-4.26,5.51-2.26a2.26,2.26,0,0,0,1.49.56c1.21,0,2.41-.48,3.41.89.47.64,1.65.82,2.54,1.06,3.74-.36,2.84-7.17,6.13-8.73.76-1.07,1.38-.42,2.13-.08,1.17.33,2.79,0,3.86.59,2.49,1.62,4.56-1.88,6.86.34,1,.68.47,1.7.54,2.58a.53.53,0,0,1-.18.39c-2.47,1.69-.21,3.42.13,5.45-2,.78-4,.49-4.32-2.18-.86.92-1.31,2-2.32,2.32-1.07-.55-4.38-.69-3.33-2.49a4.92,4.92,0,0,0,.43-1.36h-1.9l.77,1.4-.39-.06c-.35,2.95-5.2,6.93-4.23,9.31.81.62.61,1.15,0,1.71-2.26,1.59-3.2,4-4.28,6.53l-1-1.21c-1.6.57-4.67.7-3.61,3.13.1.62.48,1.55.2,1.82-.74.76-1.54,1.73-2.91,1.25a3.42,3.42,0,0,0-1.46-.11c-1.61.19-2.75-.88-4.06-1.47a8.65,8.65,0,0,1-1.27-3.63c.33-1.85-1.62-2.44-1.78-4,.88-3-.85-5.53-1.35-8.28-.38-1.95-.79-3.91-1.31-5.83-.58-1.25-1.43-2.36-1.44-3.86,0-.79-.47-1.09-1.52-.93A17.41,17.41,0,0,1,215.18,434.76Zm14.55,14.06-.29.14c.48,5.58,2.09,10.19,5.68,2.58.55-1.61,2-2.88,1.78-4.75,0-.34-1.19-.76-1.88-.91-1-.22-2.29.5-3-.55-.44-.61-2.83-1.41-3.46-1C227.09,445.54,229.19,447.51,229.73,448.82Z"/>
        <path d="M55.44,58.61l.78-1-2.38-1,.67,2.44c-1.62-.22-3.44-1-1.85-2.49s-1.82-2.07.09-4c.76.26,1.46,1.49,2.47,0l-1.75-.54,0-.37c2.64-.32,5.54-.35,8.12-.5,1.69-1.38,4-.21,5.68-1.39a1.19,1.19,0,0,1,.73,0c6,1.22,11.93-.7,17.88.5a18.84,18.84,0,0,0,4.9.49c1.42-.1,2.8-1.59,4.33-1.51,2.82,0,6,1.29,8.73.63,1-1.14,2-.49,2.9-.06a4.58,4.58,0,0,0,3.38.25c2.74-.6,5.7-.12,8.47.19.2,0,.46.08.58,0,1.1-.88,2.26,0,3.38-.16,1.85-.05,3.11-1.92,4.8-.38a3.39,3.39,0,0,0,2.48.34c1.85-.52,3.48.21,5.17.59,1,.24,1.89.63,2.89-.18,2.7.39,6-.32,9.07-.44,6,1.91,12.53.9,18.58,1.87.41.12.94.59,1.15.47a4.52,4.52,0,0,1,3.5-.43c3.2.87,6.34-1.17,9.52,0a.53.53,0,0,0,.43,0c1.72-1.53,3.47-.08,5.2-.06a9,9,0,0,1,2.62.48c-1.51.22-3.31,2.58-4.56.93-1-1.45-2.26.65-3.57.57-2,.38-3.93,1-6,.13a10.27,10.27,0,0,0-4.08-.55c-7.19,2-4.06-.87-7.62-.36-6.93,2.9-14.71-1-21.61,2-.89.53-2.4.26-3.57,0-4.33-.85-8.51.68-12.82.18-2.94.68-5.67.92-8.52-.33a1.59,1.59,0,0,0-1.13.09c-2.79,1.36-5.51-1.15-8.18-.94a1.56,1.56,0,0,1-2.42.38,36.48,36.48,0,0,1-13.22.17c-.87,0-2.13.67-2.92.28-2.16-1.33-4.78.14-7.18,0a2,2,0,0,0-1.29.57c-1.37,1.78-2.2-1.22-3.81-.24-8.78,3-3.46-3.92-9.91,1.41-.23.13-.78-.17-1.09-.39s-.68-1-1-.94A11,11,0,0,0,57.51,59c-.26.33-1.3,0-2,0Z"/>
        <path d="M128.23,109.15l-1.73-.71,0-.4c.43-.07.93-.32,1.28-.17,3.77,1.16,4.84-5,8.23-5.87.85-.29,1.45-.49,1.91.74.86,2.19,4.39,3.43,4.4,6-.08.25-.77.48-1.14.42-2.39-.39-4.22,1-6.3,1.72s-2.74,2.28-3.63,3.86c-1.93,2.41-4,3.75-1.15,6.43,2.26,2.64,0,4,4.76,4.12,1.27-2.77,3.64-7.79,6.88-4.08,1.23,1.15,2.67,2.12,1.55,3.85a2.38,2.38,0,0,1-1.67.85c-.86.07-1.36.25-1.54,1.19-.46,1.06-2.11,1.54-3,2.09.2,1.1,0,2.39.6,2.91,1.32,1.24,2.23,2.76,3.43,4,.69.76,2.59-.47,3-1.8a6,6,0,0,1,4-2.89c.13-2.52,1.82-5.54.46-7.92-1.44-1.57-.34-3,.17-4.62a1.71,1.71,0,0,1,1.49-2c4-.13,4,5.39,5,8.17,1.24,4.63-5.22,5-6.88,8.56-.82,1.19-1.15,3.13-2.69,3.56-3,.32-3.37,3.63-5.34,5.46a19.92,19.92,0,0,1-4.16,2.14c-.84.32-3.76-1-4.08-1.86a3.63,3.63,0,0,1,.46-3.63c.81-1.38.76-2.59,1.62-4.18-1.55-1.1-10.68-7.59-4.14-6.68,1.89-.11-.39-2.25-1.39-1.23s-1.86-.23-2.87-.33c-2.88-1-.23-5.36-5-3.4-1.48.4-7.39,1.36-5.17-1.8,1.44-1.16,2-3.1,3.91-3.88a5.52,5.52,0,0,0,2-2.28C123.48,112.84,126.46,112,128.23,109.15Z"/>
        <path d="M214.92,83.91a4.76,4.76,0,0,0-3.78,3.63c0,.12.61.64,1,.78a4,4,0,0,0,1.74.22c2.94-.46,4.17,2.18,6.36,3.38,2.18.6,2.4,2.55,2.31,4.48-.51,3.48-6,2.49-5.85-.87-.6-1.68-3.37-1.46-4.85-1.92a20.08,20.08,0,0,0-3.5-2.11c-1-.42-3.5-2.83-3.63-.53,1.36,3.37.18,6.51-1.86,9.32-1.08,1.95-1.6,3.72-4.18,2.56-.78-2.13-1.86-6.44,0-8.28.64-.64.29-1.07.08-1.57-.32-.73-.31-1.12.5-1.65a5.41,5.41,0,0,0,1.47-2.24c-1-1.85-3.59.24-5.19.33-1.68.64-3.72-.79-4.78,1.17s-2.34.19-3.56-.43a2.45,2.45,0,0,1-1-4.18c.13-.14.28-.38.43-.38,2.73-.06,4.71-2.85,7.66-2.12.95-.39,2.46-.06,2.75-1.49.13-.78-1.7-2.74-2.72-2.8-2.29-.36-7.15-3.09-6.32-5.79.28-1.49,1.63-1.25,2.59-1.45.35-.07.87.71,1.32,1.08,4,3.27,7.81,6.6,12.76,8.4.07-3.63-.19-7.06-.14-10.64a4.66,4.66,0,0,1,3.25-4.43c1.81.12,2.08,3,2.56,4.58-1.63,2.55-.16,6.69-.65,9.73l2.88-.64c.8-.69,2-1.65,2.94-2.43.66-1.89,2.12-1.49,3.64-1.24.46-.74,1-1.52,1.6-2.54a13.27,13.27,0,0,1,1.94,2.42c-.78,1.45,0,3.53-2.07,4.5C219,81.81,217.21,85.88,214.92,83.91Z"/>
        <path d="M376.89,384.39c-3.11,1.3-5.53,4.8-9.13,5.59-.75-1.14-.61-2,.23-2.54,3.46-2.54,2.77-7.4,5.95-10.18,1.62-2.18,3.06-4.38,5.9-5,2.36-.63,5.72-.25,4.69,3-.45,2.69-4.31,5.81-1.1,8,4-.86,6.07,3.76,9.34,5.09,2.55,1.79,3,6,6.4,7-.3-2.76,2.09-3.58,3-5.35,1.27-.95,2.85,1.06,4,1.62.57,1.21-1.07,2.91-1.94,3.58-2.16,1.24-2.85,3.76-5.1,5l1.16.74a40.74,40.74,0,0,1-9.93,9.42,2.13,2.13,0,0,0-2.34.77,1.16,1.16,0,0,1-1.14,0,2.3,2.3,0,0,0-3.69-.31c-.16.14-.57.21-.68.11-1.69-1.27-3.92-.05-5.09-2.24a7.52,7.52,0,0,1-1.62-4.28c-.6-1.94-1.28-3.62-.82-5.77.23-1.61.56-2.49,2.09-3,.86-.4,2.13-1.59,2.18-2.58C379.3,390.07,377.44,387.56,376.89,384.39ZM387,404.05c1.76.2,4.11,2.42,5.3.23.82-2.32,5-4,2.7-6.66-1-1.22-1.68-2.83-3.53-3.15-.37-.06-.69-.52-1-.84-.76-1.47-3.43-3.08-4.73-2.13-2.11,1.71-2.43,4.46-4.41,6.18-.55.66-.7,2.32-1.09,3.14.37.28,1.11.56,1.13.88.1,2.28,3.07,1.91,3.46,3.85C386.09,406,386.79,405.9,387,404.05Z"/>
        <path d="M124.87,160.58l1.52.45c-.39,2.78-3.5,3.55-4.31,5.76.21,1.15-.3,1.6-1.41,1.72-.35,0-1,.65-.91.88a3.2,3.2,0,0,1-.5,2.44,5.06,5.06,0,0,0-.83,2.59,1.24,1.24,0,0,1-1,1.3c0,2.66-4.19,3.27-4.35.62.38-1,.63-1.75-.39-2.47a6.45,6.45,0,0,0-2-3.58c-1.12-.78-1.25-.59-1.4-1.71-5.28,1-5.46.4-6.75-4.54l-2.76.86c.14-2.58-2.48-2.62-3.23-4.17-2.11.21-2.07,2-2.76,3.26-1.75,3.2-3.41,8.42-7,3.42-1.46-.85-1.52-1.48-.31-2.67a28.78,28.78,0,0,1,4.13-7.32c.86-1.28,2.29-2.27,2.63-3.79.29-1.3.81-1.91,2.1-1.78-.06-4.45,3.23-7.7,4.53-11.73a2.4,2.4,0,0,1,3.55-1.16c.85.64,1.63,1.55,3,.86.75.13,2.91,2.36,2.93,3.32-.37,1-2.15,1.94-3.22,2.4-3.57,1.06-5,5.22-8,7.52,1.75.91,3.12,1,4.44,2.52.66.82,2.34,1.08,3.42,1.44,1.48,1.37,3.33,1.18,5.13,1.28,2.64.81,4.65,3.17,7.09,4.46.86.38,2.72.79,3-.58a4.44,4.44,0,0,1,3.74-3.34C125,159.36,124.94,160.11,124.87,160.58Z"/>
        <path d="M150.31,62.05a6.57,6.57,0,0,1,8.1-1c.17.41-.86,1.57-1,2,.23,2.37-2.28,1.34-3.51,2.09-1.25,1-2.13.41-3-.54.49,1.11.55,1.94-.78,2.46a23.18,23.18,0,0,0-6,3.7c-1.39,1.23-3.4,1.39-4.32,3.11-.41.83-1.73,1.21-2.68,1.74-2.29.86-4.18,2.5-6.2,3.87-1.47,1.07-2.86,2.24-4.35,3.27s-2.39,2.7-4.43,2.62c-.17,0-.49.11-.51.22-.39,1.68-2.07,1.6-3.16,2.29-1.68,1.15-2.21-.59-2.65-1.9-2-1.29-1-3-.88-4.79,4.77.45,2.48-3.65,6.37-2.72,2.48-1.94,4.77-4.06,7.05-6.14,1.89,0,3-1.55,4.32-2.44s3-1.19,3.76-2.8c.74-.94,2.31-1.47,3.33-2.2l-.12-.43c-1.58,0-2.34,1.28-4,.5-1.88-.59-3.92-1.41-6-.31-.25.13-.66-.06-1,0s-1,0-1.17.26c-1.88,1.8-4.94.75-7.31,1.49-1.92.35-3.11,2.45-5.47,1.73-1.73-.7-3.12.9-4.89.44-1.38-.2-2.65-1.64-4.08-1.1-.88.38-1.34.21-2.09-.56a15.9,15.9,0,0,0-4.07-2.69c-.6-.32-1.3-.45-1.09-1.22.68-.59,2.5-.22,3.42-.44,2.16-.66,2.32,1.2,3.35,2.73,1.29-2.48,2.38-4.88,5.58-3.84a4.38,4.38,0,0,0,3,.11,3.12,3.12,0,0,1,2,.26c2.79,1,5.39-.09,8.33.82a1.44,1.44,0,0,1,2.06-.64c1.57,0,3.29.05,4.9.18,2.3,0,4.31-1.51,6.72-.75,3-.53,6.11,0,9.13-.85A2.53,2.53,0,0,1,150.31,62.05Z"/>
        <path d="M405.93,180.34c.14,3.17.29,6.35.45,9.65-2.12.12-5.12,1.88-6.51-.54-2.15-4.91-3.89-10.16-6.75-14.7C391.5,174.32,392,173,392,172c.21-1.19,0-2.68,1.25-3.35,5.29-3.83,3.83,9.12,9.42,5.26,5.93-4.09,11.31-9.5,18.36-11.42a3.67,3.67,0,0,0,1.9-1c.63-1.29-.63-2.89.51-4.24.41-.74.8-.59,1.18,0,3.22,4.18,4.45,9.39,7.77,13.51,2.26,2.19-.28,6.78-2.55,4.18a7.44,7.44,0,0,0-3.78-2.57c-1.2-.38-1.28-.89-.36-1.9l1,.66.23-.22-2-2.38L421.83,170c1.86,2.75-4.15,4.07-5.9,5-.09,0-.23.06-.26.12-.76,2-2.69,2.07-4.54,2.48l1.66-1.91-.35-.46C409.68,176.19,408.66,179.55,405.93,180.34Z"/>
        <path d="M330.4,424.57c-2.44-1.23-2.2-2.82-.52-4,1.72.36,1.1-.77,1.34-1.69,1.08-5.79,7.32-7.75,11.57-10.65a2.74,2.74,0,0,0,2.72-1.87c1-2.16,2.87-3.44,4.51-4.94,2.08-1.66,5.38.92,6.1,2.94-1.7,1.77-5,1.83-4.48,5.09l-2.47.94L349,410c.46-.54.82-2.18-.36-1.85-1.16,1-1.13,3.18-.64,4.46.83,1.27,2.18,2.19,2.86,3.6.38.59.64,1.44,1.18,1.69,2.52,2.26,2.75,6.25,4.54,9.12,1.26,1.54,3.16,1.55.49,3.29a1.92,1.92,0,0,1,1.75,2.07c.9,2.33,4.42-.42,5.67-1.43.44-1.58,1.83-1.44,3.07-1.72,2,3.28-6.06,6.15-8.61,5.68-2.4-.27-2.35-.36-3.28,1.92-.58,1.43-1.22,2.71-3.28,2.51-1.7.2-3.15,3.34-5.27,2-3.17-1-8.61,3.18-8.18-3.34l5.95-2.55c.65-.29,1.24-.4,1.61.38,1.4,2.24,6.07-3.49,7.88-4.46.14-4.18-3.06-2.05-3.92-4.95-.14-.74-1.36-.83-2-.12-1.84,2.15-4.36,2.31-6.88,2.33-5-.94,2.23-6.75,4-8,.59-.4,1-.95.29-1.67a18.21,18.21,0,0,1-3.64-5.94c-1.4-2.82-3.95.63-4.3,2.53a4.5,4.5,0,0,1-2.27,2.6c-2.7,1.45-1.18,4.94-2.34,7.22-.24.61-1.74,1.06-2.62,1C329.52,426.31,330.37,425.28,330.4,424.57Z"/>
        <path d="M442.86,144l1.25-.54c-1.06-.22-2-.43-2.37-1.91-.12-.53-1.28-1.09-1.62-2a6.89,6.89,0,0,0-2-2.54c-1.58-2-1.78-5.34-4.26-6.88-1.38-1.41-1.55-3.78-3.57-4.69-.29-.16-.66-.61-.62-.87.15-1-.55-1.44-1.17-1.87-2.09-1.53-2.55-3.78-2.79-6.25,1.49-.15,3.94-1.77,5-.09.83,2.09,3.32,3.23,4.33,5.24.26,2.8,2.86,4.28,3.74,6.72.09.23.46.35.65.56.42.46,1.07.91,1.17,1.44.34,1.9,1.82,2.93,2.95,4.22.61.56,1.11-.11,1-.64-.39-.64-.59-1.21,0-1.84.25-3.64-1-7.3-1.47-10.89,1.05-3.59-.64-7-.25-10.57.2-1.62,1.07-3.34,1-4.93-1-.83-.91-1.74-.34-2.79.74-1.31,3.42-4.39,4.62-2.13.34.92.48,1.84,1.55,2.34.37.17.4,1,.66,1.8l-2-.11a3.82,3.82,0,0,1-1.11,4.15c1.72,1.09,1.38,2.44.91,4a6.26,6.26,0,0,0,.31,3.4c1.4,4.31-1.23,8.8-.26,13.36.5,3.8,1.26,7.33,1,11.17,0,.28-.19.65-.07.85.87,1.44-.06,2.89.1,4.33-.07,2.37,1.81,5.5-.08,7.34-2.86-2.53-2.61-7.35-6.32-9Z"/>
        <path d="M416.85,369.48c1.5-1.13,2.41-2.57,1.41-4.53,2.95-.67,3.42-4.3,3-6.87-.14-1.17.31-2.65-.3-3.69-1.55.29-4.06.23-5.23,1.4a3.74,3.74,0,0,1-4.78,2.56c-2.65,4.79-9.36,3.26-13.94,3.54-.29,0-.72.11-.83,0-1.07-1.39-3.16-1.91-3.38-4a1.94,1.94,0,0,0-.54-1c-2.76-2.6,1.14-4.72.85-7.74.12-1.63.89-5.95,2.84-6.38,2-.14,2.21-1.92,3.72-2.94.66,1.37,1.44,1.64,2.37.6,1.46,1.5,1.68,2.4.87,3.33-.53.61-.71.6-1.49,0-.87,2.37-3.26,2.83-5.46,3.36l.26.36a6,6,0,0,0,.39,3c-.41,2.25,1.25,3.34,2.83,4.52.23.17.67.31.68.48,0,1.18.5,1.71,1.76,1.56,2.79,2,5-3.42,7.93-1.27,1.1-.84,2.79-1.14,2.54-2.87s.92-3.22,1.55-4.79c3.28-2,7.72-.68,10.88,1.17,3,1.29,2.35,5,3.08,7.75.06.37.09,1-.07,1.09-1.09.46-.59,1.34-.71,2.09-.24,1.54-.08,3.2-1.69,4.31-1.68,2.21-1.41,6.06-4.25,7.54C417.26,373.19,418.46,372,416.85,369.48Z"/>
        <path d="M62.05,105.75a4.88,4.88,0,0,1,3.26,4.16c4.41,2.08,2,5.47,1.44,8.81h2l-.8,1.67c1.9,1.67-1.19,8.31-.41,11.41-.31,3.38-3.26,6.33-1.45,9.91,1.22-.39,2.23-.67,2.73-2,1.09-1.76,2.46-3.15,3.25-5.26l1.18.07c.22-2,.58-3.89,2.15-5.34.52-2.24,2.59-3.51,3.44-5.55.35-.83.93-1,1.51-.07,1.16,1.18,3,1.25,1.27,3.06-2,3.33-5.91,6-5.93,10.15a6.32,6.32,0,0,1-.73,1.72c-.63,1.8-2.47,2.74-2.91,4.59-.09.37-.22.9-.49,1-1.52.78-1.39,2.52-2.22,3.69-1.49,2.68-3.13,5.57-3.12,8.75,0,.28-.36.77-.69,1a2.45,2.45,0,0,0-1.44,2.79c.13,1.21-.91,2.57-1.5,3.82-2.17,1.09-2.2-7.87-1.27-8.82,1.15-2.72-1.3-6,.7-8.4.11-.09.26-.3.22-.36-.64-1.22.16-2.36.14-3.52,0-1.89-.31-3.77-.43-5.65.14-1.72.91-3.16.45-5-.27-1.43-.89-3.22.17-4.77a1.13,1.13,0,0,0,0-1,3,3,0,0,1-.44-4c.7-2,2.67-5.21.37-6.77a.92.92,0,0,1-.21-.88c.66-.89.3-1.76.16-2.68A49.32,49.32,0,0,0,62.05,105.75Z"/>
        <path d="M95.11,281.66c-1-.15-1.53-.58-1.41-1.65,0-.17-.5-.55-.79-.58-3.68-.27-7.37-.41-11-.6-.48,0-1.09,0-1.41-.25-1.34-.9-3.1-.21-4.5-.39-2.87-1.34-3.59,1.47-5.44,2.85,1.92,2,.48,3.21-1.49,4.17-2.46,1.21-4.35-1.66-3.32-3.83,1.12-1.94-1.84-4.34.47-5.73-1-2.13-.22-5-.34-7.39,1.11-2.73,4.84-1.82,6.22,1.18.46.91.7,1.91,2.06,1.19a.92.92,0,0,1,.81.23c2.48,2.5,5.2-1.75,6.71.15,2.18,1,6.14-2.14,7.81,0,1.43.85,3.51.44,5.13.46,1-.11,1.28-1,1.46-1.95.47-1.31,1-6.22,3-4.11,3.2,3.36-1,4.31.37,7.54a45.4,45.4,0,0,0,.49,7.46C100.54,284.05,94.29,286.4,95.11,281.66Z"/>
        <path d="M368.51,455.1c4.26.41,3-2.05,5.9-2.82a1,1,0,0,0,.71-.45c.51-1,1.21-1.1,2.22-.81,1.39.21,1.58-2.71,2.89-1.93,2-1.48,3.77-2.85,5.62-4.08,1.4,0,3.28.8,4.84.55l.08.58-4.57,1.11c1.37,1.78,1.06,2.57-.87,3.18-1.11.46-1.55,1.26-2.71,2.2.24,2.11-2.73,2-4,3.24-1.65,2.61-9.35,5.16-6.52,8.49.07-1.75.67-2.19,2.27-1.83,1.44.33,2.89.38,3.85,1.71a.77.77,0,0,0,.66.25c.06-.07.17-.16.16-.22-1.24-3.22,3.14-1.4,4.83-1.5,1.63-.35,2.48-1.19,3,1,.91-.58,2.41.14,2.88-1.41,1.71-.19,3.45-1.4,5.34-.84a1.42,1.42,0,0,0,1.11-.37,3.92,3.92,0,0,1,4.22-.83c4.33,1.06,6.63,3.32,10.57,5.44l-.13.53c-2.57-.1-2.2-1.36-4.33,1-.6.59-1.21.82-1.93.17-1-.85.05-1.47.53-2.11-.77-2.39-3.37-2-5.43-2.35a10.51,10.51,0,0,0-2.2.49c-1.27.23-2.48-.33-3.76-.21l1.18.55a3.21,3.21,0,0,1-3.93,1.72,2.06,2.06,0,0,0-1.66.08A2.28,2.28,0,0,1,385.6,464c-.16.07-.32.11-.32.15.46,2.63-5.11,3.84-3.73.77l1.31.14c-.54-.82-1.19-.93-2.65-.57-.42.68.32,2-1,2.15-1.1.16-2.46.71-2.89-1.12l-1.17.48.59.81c-3.22,1.32-6.45-.3-9.59-.8-1.63.81-3.24,1.75-5,.65-2.29-1.55-3.05,2.68-5.13.76-.76-.43-2.25,0-3.17-.33-.72-.6.52-1.37,1-1.49.95-.1,1.69-.21,1.94-1.37.06-.27.93-.62,1.35-.53,2.12.4,3.29-1.18,4.64-2.2,1.61-1,2.57-3.12,4.3-3.84C367.8,457.66,368.43,456.63,368.51,455.1Z"/>
        <path d="M448.81,404.32c-1.39-.55-1.22-1.51-1-2.62.47-2.31-1.07-5,.88-6.94a1.43,1.43,0,0,0,0-1.38,2.5,2.5,0,0,1,.16-3.27c1.63-1.5-.17-3.06,1-4.65.83-1.71,2.16-4.27-.59-5-1.83.12-1.91,2.84-2.75,4.09a85.31,85.31,0,0,0-9.05,15.33c-.64,1.55-6.08,2.8-5.27-.18,1.05-1,1.3-2.63,2.84-3.35.83-.38,1.27-1.57,1.91-2.38.95-1.18,1.36-2.81,3-3.43a1.23,1.23,0,0,0,.7-.88c-.07-2.12,1.59-3.44,2.32-5.18,1.38-2.13,1-5.16,2.69-7.05,2-.49,2.25-2.25,2.17-4-.05-.6-.21-1,.39-1.31.12-.07.31-.21.3-.3-.18-1.64,1.1-1.83,2.37-2.21-.94-2.65,1.37-3.36,2.75-4.63,2.17-.31,1.44,3.94.51,4.89l.72,1.38-1.41.76c.42,4.11-.9,8.37.7,12.15.38.51.09,1.63-.07,2.43-.2,2.06-1.67,4.41-1,6.4,2,2.35-.39,4.49,0,6.94.11.61.58,1.23.5,1.79-.19,1.34.74,2.77-.27,4.05.11,3.42,2.31,6.64,1.59,10.21-1.65-.78-1.65-2.54-2.13-3.77-1.41-.25-1.63-1.75-2.57-2.37a2.36,2.36,0,0,1-1-2.51,9.52,9.52,0,0,0-.89-2.7Z"/>
        <path d="M355.13,61.42a7.14,7.14,0,0,1,4.36.27,5.17,5.17,0,0,0,3.58-.17,13.61,13.61,0,0,1,7.92.07c2.39-.7,4.75.37,7.11.09,1.52-.4,2.93-2,4.49-.46,7.36,3.13,15.4-3.18,23-.71,1.17,1.23-.88,3.12-1.2,4.49a20.9,20.9,0,0,1-17.16,1.22c-.89-.19-3,1.36-2.84-.5-1.88.36-3.74,1.38-5.58,1.67-2.36-.18-3.77-2-6-.15v1.33c2.14,1.17,3.11,3.37,5.64,3.23,1.43-.16,3.86,2.59,2.4,3.43-2.46.63-4.09-1.84-5.91-3.08-.63-.53-1.16-1-2.08-.71-1.94.16-3-1.77-4.67-2.83-.9.36-3-.54-3.47-2S363,65.38,362,65c-2.32-1-4.72-1.87-6.95-3.08Z"/>
        <path d="M312,372.55l-.7-1c.85-.86,1.64-.49,2.64,0l-1.3.84,0,.38a5.25,5.25,0,0,0,1.93.21c.75-.2.92-.08,1.45.54,1.7,1.87,1,4.23,2,6.4a47.67,47.67,0,0,0,2.43,6.21c3,2.78.11,6.26,2.58,9.18-.45.09-1.06.41-1.35.23-1.3-.82-1.94.5-3,.82L317.54,395l-.79,2.32-.43.08c-.35-1.39-2.6-3.28-.07-3.66,1.29-2.37-2.22-.08-2.73-1.73-1.24-1.84,2.07-1.83.44-4.21-1.65-2.13-1.79-5-3.51-7.13a5.55,5.55,0,0,1-.92-2.37c.1-1.72-1.37-5.5,1.41-5.37A3.73,3.73,0,0,0,312,372.55Z"/>
        <path d="M431.7,331.74c-1,.52-.89.19-2.27-1.9l1.3-.7a3.36,3.36,0,0,0-.39-1.06c-1.15-1.38-.27-2.8-.13-4.2a1.46,1.46,0,0,1,.49-.72c1.25-1.2,4.68-.41,5.24,1.2.12.32.15.8.37.93,2.21,1.27,1.46,3.66,2.08,5.52C438.39,334.28,434.08,331.91,431.7,331.74Z"/>
        <path d="M405.07,320.66c1.48-5.16-.19-5.27,5.77-4.74.64-.21,1.26-.68,1.8.19,1.93,2.56-1.32,5.48-1.31,8.31-.08,1.83-1.64,1.08-2.85.78C405.65,324.75,405.41,323.17,405.07,320.66Z"/>
        <path d="M159,92.41c1-1.13-.37-1.74-.62-2.59-.14-.5-.63-.89-.78-1.39-.87-2.23,1.67-1.47,2.62-2.43.39-1,1.23-1.13,2.11-1.4,1.92-.59,2.44-.49,3.69,1.05,1.16,1.17,2.81,3.1,1,4.41s-3.65,2.28-5.52,3.34C160.66,93.59,159.71,92.79,159,92.41Z"/>
        <path d="M69.67,306c.09-2.3,3.1-3.47,5.26-3.34.9-.1,1.28.08,1.53,1.18-.07,2.06,3.85,4.62,1.58,6.2C73.16,312.76,69.77,312.16,69.67,306Z"/>
        <path d="M172.69,109.71a5.13,5.13,0,0,1,3.05-3.74c1.3-.29,2.9-2.71,3.76-.64.13,2,2.11,4,1.6,6a5.71,5.71,0,0,1-4.11,2.79C175.47,114.26,172.65,111.5,172.69,109.71Z"/>
        <path d="M100.52,304.88c-1.61.23-3.29,2.18-4.79.95a1.85,1.85,0,0,1-.62-2.33c.57-1.47.51-4.38,1.65-5.32,1.86-.61,5.24-1.51,5.84,1.25a18.82,18.82,0,0,1,.18,5c0,.39-1.34.64-2.07,1Z"/>
        <path d="M380.62,181.49c-1,.29-2.22.6-2.14-.83,1.64-1.95,4.94-2,7.2-3.09,2.26,0,3.58,4.08,2.6,6.14l-1.72.56c-.31-1.22-.63-2.85-2.09-2.45-1,.23-1.38,1-1.1,2.12.06.27-.22.62-.34.93a7.28,7.28,0,0,1-1.19-.7C382.36,182.78,381.15,182.24,380.62,181.49Z"/>
        <path d="M79.74,180.27c2.09,2.36,5.74-1.71,4.78,3.71.66,2.07-1.93,4.24-3.77,2.65C77.42,184.89,75.33,182.42,79.74,180.27Z"/>
        <path d="M102.38,189.45c.75,1.81,1.93,3.05,4,3.19-.25,1,.13,2.52-.71,3.14-1.13-.23-1.49.71-2.1,1.29-1.28,1.05-4.69,1.33-4.84-1a6.87,6.87,0,0,1,2.28-.29,7.88,7.88,0,0,0-.42-2.22c-.9-1.69-.94-1.62.84-2.59C101.78,190.76,102,190.12,102.38,189.45Z"/>
        <path d="M392.45,444.43c-1.74-2.35-1.84,2.23-3.85-.16-1.43-1.23,3.07-4.22,4.32-4.15.64-.22,1.31-.94,1.86.12C396.17,442.55,393.64,442.87,392.45,444.43Z"/>
        <path d="M416.55,370.41c-2.39.6-6.55,1.64-5.07-2.38C413.72,370.18,415.22,367.08,416.55,370.41Z"/>
        <path d="M397.24,464.56c1.79,0,8.78-1.5,5.07,1.89a.93.93,0,0,1-1.5-.29c-.85-1-2.47-.87-3.64-1.36Z"/>
        <path d="M90.58,468.13c-1.64-1.14-3.16-.29-4.77,0-1.25.21-2.63.73-3.91-.1-3-.1-6.32-.26-9.36.56-1.26.44-2.23-.66-2.68-1.37-.86-1.7,1.17-3.61.88-5.43-.18-2.59,1.43-5.37,1.69-7.76-.5-2.58,1.26-4.52,1.5-6.82.69-5.11,3.75-9.34,4.33-14.5a12.82,12.82,0,0,1,4.53-8.4c1-1.09.7-3.5,3-2.91,1.6-.36,0-2,3-2.15,2.53,0,11.15-1.4,10.81,2.47,2-2.1,4.71,1.38,6.18,2.76.92,1.16,1,1.11.28,2.35,2.17,2.58,2.2,2.89.5,3.75,2.47.5,1.12,2,.74,3.66-.48,3,7,.6,9.23,3.09.49.36,1.62.25,2,.67.52,1.83,2.48,2.86,2.62,5,.06.81.84,1.58,1.3,2.37-1.56,1.64-1.09,3.45-.27,5.28-1.34,1.09-1.41,1.08-1.46,3A4.14,4.14,0,0,1,119,457a22.53,22.53,0,0,0-1.74,1.9c-.66.65-2,.49-2.23,1.74-6,.09-4.13,3-8.66,4.87-6.76,1.77-4.93-2-9.59-2.7-1.61-.26-2.39,2.44-.54,2.65.38.07.66.58,1,.9-.62,1-1.27.6-1.8-.09-.31-.68-.72-.71-1.38-.76-1.37-.31-2.64-1-4.08-.44q.41,1.4.9,2.76Zm-.86-40.57c-1.46,1.5-1.76,3.6-3.76,4.3a2.19,2.19,0,0,0-1.34,1.4c-.42,2,0,4.41-.21,6.38a1.94,1.94,0,0,0,.44,2.64c.08,1.45-2.18,1.57-1.37,3.2-1.34.69-1,2-1.33,3.18-.15.57-.8,1-.86,1.61a1.66,1.66,0,0,1-1.08,1.56c-.09,0-.11.25-.17.38l1.15,1c-.85.69-2,1.39-2.21,2.4a2.54,2.54,0,0,1-1.36,2.55c-.76.48-.23,2.22-1.83,1.88V461c7.68-1.08,15.28-1.58,22.88,0,.74-1.4.74-1.4,2.22-.83,3.16-.11,8.77,1.85,9.82-2.37.31-2.72,2.37-6.05-.3-8.09,1.9-.25,2.13-.29,1.79-2.16a11.92,11.92,0,0,0-2.07-4.44,30,30,0,0,0-3.29.19c-1.89.29-3.69,2-5.68.14-2-1.21-1.56,3.47-5.41,1.76-.36-2.28-.63-4.65.87-6.48,1.21-2,4.62-5.57,3-8l.69-2-.37-.15-.62.72c-1.74-.24-.17-2.58-2-2.73a7.3,7.3,0,0,0-7.07,1.24Z"/>
        <path d="M65.8,363.57c1.34.82,1.32,2.23,1.66,3.47.6,2.23,1.85,4.29,2.47,6.54.51,1.24.95,2.72,2.29,3.56a1.11,1.11,0,0,1,.3,1.87c.67,1.44.83,2.75,2,3.68.29.36.81.79.78,1.14-.17,1.55.61,1.92,2,1.7,0,2.82,1,5,3.87,6.07-1.13,1.23-.65,2.08.47,3.16.8.78,1.07,2.14,1.5,3.27a9.75,9.75,0,0,0,2.19,3.37c1.46,1.5,2.23,3.94,3.3,5.71,2.68,1.4,6.89,6.35,2.49,8.17-1.38.51-2.91,1.41-4.19-.29-1.73.44-1.39-1.4-2.19-2-2.73-1.56-3.34-4.43-4.34-7.15-.59-1.24-1.45-2.34-2.08-3.56-.47-1.88-.63-4.09-1.79-5.76A7.44,7.44,0,0,1,75,391.06c-.06-1.28-.76-2.4-.64-3.83L73,387l-.28-1.37-.41,0,.19,1.86-.61.49c.61,4.51,1.61,8.93,1.4,13.42a8.11,8.11,0,0,0-.67,4c-.07,2.49,0,5.16-.14,7.65-1.25,1.86-.54,3.77-.2,5.68a4.64,4.64,0,0,1-.09,1.67c1.09,1.94-.77,3.83-.07,5.77.12.54-.57,1.52-.31,2.05,1.21,1.54.1,2.63-.58,3.88s-.88,3.05-2,4.23c-1.53-.92-.9-2.49-1-3.95a11,11,0,0,1-.18-2.88c.52-2-.27-3.81-.41-5.71,0-4.65.5-9.34.12-14,1.35-2.13.18-4.17-.2-6.24.09-2.28-.62-4.79.38-7.06.11-1-.15-2.3,0-3.34-1.18-1.69.25-3.14.28-4.8-.67-2.7-.25-5.59-.86-8.2a2.87,2.87,0,0,1-.37-2.48,5.37,5.37,0,0,0-.48-5.13,1.24,1.24,0,0,1-.12-1C67.83,368.9,64,365.4,65.8,363.57Z"/>
        <path d="M140.36,464c1.36-1.36,2.77-2.21,4.49-.93.8-.39.47-2.49,2.09-1.11.36-1.94.36-1.94-1.3-2.48-1.89-.79-4.19-.81-5.5-2.61-.31-.5-1.19-.64-1.82-.93-2.85-1.15-4.75-3.87-7.87-4.67-1.52-.72-4.27-1.1-3.95-3.34.5-1.25-.6-4.12,1.41-4.07,1.05.05,2.24.19,2.51,1.39.43,2,1.51,2.77,3.23,2.45,1.32,1.68,3,2.46.2,3.51,3.76-.39,6.71,1.95,9.85,3.56,1,1.56,2.36,2.07,4.41,1.31-1.05,2.13.62,2.29,1.45,2.86,2.41,1.66,4.89,3.22,7.38,4.77,1.4.73,3.07-.13,4.21,1.4a10.39,10.39,0,0,0,2.52,1.66c-2,3.55-5.57.34-8.53,1.31a2,2,0,0,1-1.41-.26,4.1,4.1,0,0,0-3.69-.09c-2.18,1.17-3.73-1.13-5.73-.51a2.65,2.65,0,0,1-2.89,0c-1.39-.44-3.24.56-4.63,1l-.26-.46,1.23-1.14c-1.72-1.22-2.49,1.58-3.23,2.67l-.23-.5c-2.36.32-4.74-.72-7-.58-1.54,1.2-3,.82-4.48-.11-2.42,2.15-6.62,2.68-8,.44a11.62,11.62,0,0,1,2.49-1.71c2.69-1.55,4.38-4.2,7.25-5.59,2.06-.77,4.5.94,6.63,1.2,2.34-.64,4.41,1.46,6.57.75C139.31,462.29,139.32,462.26,140.36,464Z"/>
        <path d="M269.46,95.27,259.25,93.6c.44-2.11,3.7-1.5,5.5-2.67,3.33-2.81,1.92-18,2.89-23.22-.85-1-2.38-.83-3.66-1-5.78-.92,2.57-5.37,5.49-5.14l5.85.45,12.27,1c2.06-.12,3.07,1.57,3.61,3.37,3,6.49,9.13,12.77,4,19.57C289.26,98.8,281.62,97.81,269.46,95.27Zm2.75-10.5c-2.36,1.46,2.05,1.35-.75,4a2.86,2.86,0,0,1,.68,2,2.89,2.89,0,0,0,3.27,2.53c2.3-.48,4.77-.66,6.4-2.76,1.64-1,3.77-1.49,5.29-2.71,1.43-1,1.25-2.63,1-4.11.06-1,1-1.74,1.36-2.71.58-1.68-.87-3.61-.17-5.23.31-.57.66-1.21.13-1.75-3.25-4.62-8.73-5.79-13.49-7.94-.88,0-1.93,1-2.83,1.46-1.65.48-.64,2.21-1.29,3.23-1.45,1.34.71,3.39-.38,4.87-2.11,2.63,2.34,2.48.93,5.26l.31-.14C273.24,81.55,272.9,84.43,272.21,84.77Z"/>
      </g>
    </g>
    <path d="M227.4,281.75a3.79,3.79,0,0,1,1,.21c-.15.32-.25.86-.48.93-.92.28-.68,1-.85,1.65-1.15,2.69-.2,5.68-.86,8.46-.31,1.13-.3,1.52.2,2.22,1.09,1.84.55,3.74.66,6,.7.4,1.74,1.05,1.09,2.09a25.4,25.4,0,0,0,1.86,3.35c2.18,1.31,2,4.13,4,5.64,1.06,1.37,2.94,2,4.09,3.12,1.51,2.1,4.1,3.88,6.71,3.33,1.51-.6,1.42,1.07,1.59,2a7.73,7.73,0,0,1-2.56,6.94c-.17-.1-.15-.53-.22-.85-2.35.5-3.55-1.77-5.79-2.11a2.48,2.48,0,0,1,.66,2c-.31-.05-.82,0-.9-.16-.49-1-1.43-.76-2.22-1a19.93,19.93,0,0,1-8.3-6.64c-.81-.76-1.13-2-2.3-2.38-.25-.09-.62-.3-.64-.48-.24-1.46-1.81-2.47-3.18-2.84-.85,0-1.14-.52-1-1.41a5.28,5.28,0,0,0-.53-2.46c-.29-1.16.36-2.34-.8-3.58-.95-1.4.06-4.41-.91-6.19-.6-1.71-1.31-3.39-1.84-5.12-.26-1.76,2.79-2.83,0-4-.34-.18-.77-1.06-.61-1.08,2-.26,3.11-1.75,2.43-3.63-.82-2.27.36-3.87,1.37-5.6,2-2.79-.42-4.72,3.55-6.19-.67-1.72,1.72-1.83,2.41-2.83s.73-2,2-2.5c.65-.26.83-1.54,1.37-2.24,1.88-2.7,5.49-4,6-7.66.13-1.06.73-1.35,1.73-1,3.28-.56,5.56-3.59,8.71-5.05.18.78.31,1.35.45,1.91,3.47.5.28,3.48,1.24,5.66.89,3.3-2.94,4.06-5.4,3.91-.51,1.57-2.51,1-3.27,2.36s-2.34,2-2.44,3.61a3.92,3.92,0,0,1-2.79,3.43c-.69.25-.52,1.18-.67,2-2.37-.21-2.41,3-4.12,4.12a1.26,1.26,0,0,1-2.09-.9"/>
    <path d="M249.6,319.18a35.24,35.24,0,0,0,.47-7.12c-.32-6-2-12.75,1.6-17.55-3.18-3.16-1.1-10-.9-14,.27-5.39-1.1-12.91.38-18,.39-1.35.93-2.58.15-4.06-.5-.91,0-2.39-.34-3.39-1.73-2.07-.12-4.2,0-6.25,1.65-.76.95-2.49,1.52-3.7.57-1.62-1.47-3-.23-4.68.13-.17-.09-.65-.22-1-1.7-2.94.67-6,.34-8.93-.4-1.26-1-2.51.13-3.75.18-1.22-1.89-1.39-.48-2.74,1.26-1.34,1-3.11,1.38-4.72-.8-1.23-1.91-2.88-.19-4.09l-.9-.6a20.21,20.21,0,0,1-.48-4c.5-1.33,1.07-2.63,1.47-3.58-1.24-1.9-.76-4.86-3.2-5.22a117.6,117.6,0,0,0-14.6-1.8c-1-.09-2,1.06-2.64-.13-.46-.69-1-.88-1.72-.28-2.12.37-4.11-.9-5.53,1.49-1.86-.32-3.48-1.54-5.38-.75-.69.26-1.73.85-2.41.57-.6-.63.62-1.87-.21-2.4a.8.8,0,0,0-.72.17c-1.4,2-3.31.92-5.27.64-5.39-1-10.73-.62-16.14,0a3.1,3.1,0,0,1-1.82-.73c-11.15-.94-22.37-3.79-33.74-3.25-2.16-.29-7.07,1.42-8.3-.4-.21-1.83-1.05-3.9-.71-5.66,2.23-1.33-1.25-3.79,1.21-4.77,1.45-.7,2.82-1.73,4.48-.43.4.22,1.28-.27,1.69-.1,2,1.31,3.89.44,5.81-.27,1.39-.25,2.54,1.86,4,.51,2.08-.05,4.55-.11,6.52-1.24.36-.2,1,0,1.49.18,3,1.44,6.23.73,9.56,1.07,3.37,1.09,6.68-.78,10.16-.5,2.1,0,4.16.9,6.31.24a2.76,2.76,0,0,1,1.93.24c1.41,1.09,1.56-.57,2.81-.25a10.57,10.57,0,0,0,7.32.6,2.28,2.28,0,0,1,1.71.49,1.34,1.34,0,0,0,1.57.25c2.83-1.26,5.49.61,8.42.28,1.12,0,2.42.47,3.46.26,2.39-1.13,4.62,0,6.9.37,2,.42,4.17.2,6.16.6a2.6,2.6,0,0,0,2.94-.89c.91.71,1.81,1,2.67,0a.67.67,0,0,1,.54-.16c2.2.5,4.94-1.69,5.12-3.81-.22-2.28.8-4.76-.64-6.8-2.21-3.81,1.82-9.71-.24-11.38a11.81,11.81,0,0,1-.1-5c1.74-1.29-.16-5.57.09-7.72.09-.59.49-1.6.06-2.09-.82-.64-.43-1,0-1.69,1.72-2.2-1.26-4.42,2.53-5.07.45,1.17,1.33,1.19,2.44.9,1.77,0,3.49.86,5.3,1.25-.53,1.15.66,1.36,1.7,1.64-2.62,2.54,2.06,2.49.08,5.28-.5-1-1.08-1.57-2.17-1.27-.21,3.57.77,7-1,10.17-.19.21.06,1,.3,1.35.76,1.24.79,1.21-.91,1.77a26.83,26.83,0,0,1,.45,6.57c1.25,2.4.26,5.14,1.29,7.65.86,2.47-.21,5.66,2.37,7.47a9.76,9.76,0,0,1-1.83,1.28c4.58,1.81,9.62,0,14.46,0l-.22-1.19c5.8-.74,11.4-1.63,17.31-1.28,6.15,1.13,13.58-.49,19.46-.33a4.88,4.88,0,0,0,.08-1l1.92.37c.19.59,1.42-1.18,3.58-1-.21.67,2.7,1.43,2.64.17a33.65,33.65,0,0,0,4.34.29c.81-.06,1.52-.13,2,.83.34.72.89.45,1.21-.12.19-.34,2-.1,2.66.35,1.57-.28,3.53-2.17,4.58-.33.29.65,16.48-1.51,16.5-2a12.91,12.91,0,0,0,5.61.19c.15.36.43,1.08.43,1.08s-.48,2.88,1,3.78c-.09,2.52-.64,7-4,7.45-1.93,0-4.07-.63-6.2-.33-1.33.64-2.84.54-4.23.76-1.31.43-2.5.86-3.92.09-.56-.3-1.64.08-2.34.42-1.36.66-2.57,1.17-3.93,0-.38-.34-1.21-.13-1.81-.26-1.33-.4-1,1.39-2.12,1.24a4.39,4.39,0,0,0-4.37,1.33c-.28.27-4.91,2.68-6.64,1.82a2.2,2.2,0,0,0-1.76.19c-1.93,1.1-4-.35-6.11-.31-.86-.15-1.83-.73-2.53-.49-2.45.83-4.82,0-7.21-.1-2.63.14-4.93,1.18-7.52,1.26-1.94,1.32-4.18,0-6.26.73-1.35.47-3,.14-4.47.19a33.46,33.46,0,0,0-7.26.57c-1.48.38-3.1.91-4.67-.08-1.29-.35-2.73,1.3-4,.17-1-.58-2-.95-3.05.14-.61.62-1.7.24-2.61.32-2.05.2-2,1.69-.8,4.93.53.08.27,12.58.8,12.66-.2,10.17-.54,22.46,1.73,33.17.24,1.11-.55,38.19-.45,42.66.37,16.5.74,33-.47,49.49-.07.9-1,2.11-1.54,1.41,3.31,6.71,1.87,14,3,21.2.11.72-.56,1.55-.7,2.17a1.85,1.85,0,0,1-1.41,2.44l2.09,3.52c-.82.56-1.63,1.06-.68,2.07,1.1,1.16,1.83,1.14,3,.27,2.14-1.6,4.4-3.06,6.62-4.56.81-.55,1.63-1,1.65-2.19.42-2.36,3.09,1.51,3.51-1.57.6-1.14,2.52-1.19,3.27-2.1a7.3,7.3,0,0,1,5.28-2.78c.73-.12,1.46-.93,2.2-1,1.22,0,2.18-.1,2.17-1.66,0-.14.68-.47.92-.38.83.29,1.24-.19,1.8-.64,5.61-4.88,12.92-7.2,18.78-11.77a3.28,3.28,0,0,1,3.37-2.25,1.38,1.38,0,0,0,1-.82c.25-3.88,5.38-2.89,4.86-5.23,3.89-1.35,6.41-4.37,10.21-5.65,4.12-1.87,6.77-5.56,11.2-6.93,2-.94,1.21-4.29-.54-4.6-4.28.87-7.24-2.67-11.59-1.68.39-1.46-1.61-2.09-2.18-3.22a3.13,3.13,0,0,1,0-1.55,24.6,24.6,0,0,0,3.79-.58v-.34l.84.7c1.93-1.38,4.1-2.26,5.91-4.05,3.41,2.28,4.49-2.8,8.11-1.51-.1-2.5,3.73.61,3.62-3.08-.08-1.11.2-1.53,1.38-1.41,2.37.33,1.2-3.32,3.49-2.94,1-.09,1.35-1.81,2.58-1.82,1.27-.44,3.37-.76,4.06-2-.27-2.21,2.14-3.2,2.24-5.23-.63-1.87,3.21-6.22,4.06-3.58,0,1.3,2.27,3.14,1,4v3.63c1.4,1.17-.49,2.24.12,3.72,1.34,2.47-.52,4.68-.06,7.33,0,.29.05.7-.11.85-1.89,2.11-1.21,5.22-2.31,7.76-.38,1.5-.08,3.38-1.55,4.31.32,2.62.22,3.39-2.45,4.24,2.59,2.15.55,1.85-.48,3.78.39,1.06-.2,1.66-.81,2.42-.36.46-.19,1.37-.2,2.07,0,2.16-1.47,3.43-3.24,4.87-.8-.57-1.67-1.67-2.84-1.64-.95-.1-1.72,0-2.15-1.38-.63-1.92-2.64-3.2-3.24-5.27-3.42.52-4.56,5.33-8.54,3.79-.38,1-1.23,1.7-1.26,3-1.87,2.06-5.78,3.58-8.24,5.2-3.11.32-1,1.92-2,3.49a3.81,3.81,0,0,1-1-1.65c-.56.67-1.07,1.8-1.79,2.21-2.24.66-3.11,2.79-4.79,4.14-1.84,3-6.16,4.32-7.16,7.51-.28,2-2.31,2.69-4,3.17-1.21,0-1,1.31-1.62,1.81s-1.73-.14-2.05,1.05c-.14.48-1.33.71-1.61,1-.47,2.23-3.62,1-4,3.21a17.15,17.15,0,0,1-3.25,1.66c-1.86-.14-1.39,1.06-.87,2.32-1.69,2-3.4-1.41-5,.48-1.37,1.53-2.57,3.44-4.55,4.2a2.5,2.5,0,0,0-1.78,1.78c-.2.79-.72,1-1.48,1.37a8.38,8.38,0,0,0-2.65,2.27c-.38.41-.46.89-1.22.62a1.77,1.77,0,0,0-1.32.3c-1.06.68-2.12,1.48-3.11,2.23-.42,2.19-2.71,2-3.92,3.18a51.71,51.71,0,0,0-3.87,4.58l.23.2c-1.46.53-3.3.83-3.82,2.51-3.68,3.36-9.66,12.16-14,4.81-1.89-2-5-3.2-4.58-6.75-2.72,1-3.48-1.45-4.92-2.74-1.85,1.59-2.73,1.42-3.93-.61a7.85,7.85,0,0,1-2.17-4c-3.63-1-6.33-3.92-9.9-5.18l-.26.31c.16-.94.67-2.13-.8-1.89s-4-1.6-4.52-3c-.84-1.48-3.09-1.72-4.55-2.26-2.33.41-3.77-1-5.37-2.33-1.11-.94-3-1.13-4.31-1.74-2.69-4.38-8.91-3.44-11.58-7.83-.67-.81-2.17-1.16-2.76-2-.67-1.92-2.54-1.86-4-2.55-1-.45-1.82-1.38-2.79-1.85-1.05-.64-5.28-.58-3.73-2.49-1.77-.61-5.06-.8-3.11-3.35-2.49.69-4.48-.73-5.94-2.47-.74-.81-1.28-1.87-2.63-1.86-.29,0-.8-.24-.85-.46-.4-1.73-2.55-1.85-3.1-3.49-.89-1.2-2.75-2.68-3.53-2.67-1,.19-1.11-.48-1.51-1.06a9.53,9.53,0,0,0-1.6-1.5c-1.05,1.52-.55,3.26-1.8,4.7s-1.3,3.12-1,4.88.3,1.62-1.28,2c-.74.34-1.79,2.14-2.28.46-.09-.31-.14-.79-.36-.9a9.85,9.85,0,0,1-3.4-3.89c.71-1.76-.83-3-1-4.61-.74-3.43-5.22-5.72-4.81-9.78a9.42,9.42,0,0,1-1.51-5.08c0-.77-.46-1.46.2-2.2.15-.17-.13-1.1-.33-1.14-3.14-.82.38-6.22-2.23-8.82a1.74,1.74,0,0,1-.22-.83c0-1.44-.45-3.08-.21-4.46.93-1.74.2-3.35-.23-5-.39-1.46-.36-1.58,1.08-1.77a18.86,18.86,0,0,0,.43-2c1.29.62,1.89,2.29,3.5,2.16,1.72,1,1.79,3.94,2.2,5.81l.55-1.25c.83,1.56.83,1.56,2.41,1.65,2.37,1.28,4.28,3.29,6.49,4.74,1.83.53,3.66,1.07,5.52,1.48,4.61,1.79-.72,3.41,7.61,2.63.38.78.49,3.24,1.87,1.89.45-.36.78-1,1.5-.44a12.52,12.52,0,0,0,.9-1c2.14,6.07,3.69-.1,5.29,3.55.25.86,1.23,1.5,2.09,2.48-2.59,1.57-4.9,3.06-7.3,4.38-.88.48-1.82.62-1.53,2,.06.24-.59.8-1,.93-4.07.74,2.36,8.37,3.69,9.79,1,.5,1.81,2.06,3.08,1.31,1.53-.94,1.42,1.37,2,2.24l.22-.31a27.19,27.19,0,0,0,4.4,1.37c1,1.66,3,1.6,4.31,2.76,1.54,1.15,3,2.89,4.82,3.53.83-.22,1.26.22,1.73.78,1.42,1.55,2.36-1.3,5.17,1.16.81.54,1.38,1.2,2.46.72.16-.06.78.45.85.76.63,3,4.8.05,6.88,2.42.29.24.93.14,1.38.06,2.11-.51,1.83.28,2.44,1.8,1.26.61,2,1.85,3.53,2.26,1.28.36,2.31,1.57,3.85,1.32.69,1.62,2.72,1.63,3.65,3.18.65,1,2.44,1.61,3.65,2.1,1.26,1.87,3.94,1.92,5.09,4,1.19,1.22,3.14,2,1.78,4.06.42-.09.81-.06,1-.23,2.61-2,3.51,3.12,5.13,4.1,1.73-.44,2.72,1.34,4.12,1.34l1.83-3.66c.25-2.07-1.37-4.08-.88-6.5.4-2,.25-2,2.16-1.83-2-1.43-2.88-3-2-4.75-2.46-7.76,1.79-15.25-.12-23.06a9.31,9.31,0,0,1-.08-2.63c.68-2.44-1.09-4.29-1.07-6.61C247.85,327.82,248.94,323.53,249.6,319.18Z"/>
    <path d="M270.9,330c1.74.94,3.56,0,5.17,1.59.33-.91-.79-2.17,0-2.76.45-.35,1.13,0,1.38.51.64,3.49,1.42,3.21,4,1.29-1.24.83,1,4.25,1.65,4.8,1.54,1.33,3.62,1.29,5.29,2.55,1,.72,1.88,1.81,2.81,2.59,2.26-.06,2.94,2.07,3.39,3.33,1.18,2.89,4.36,4.21,3.76,7.63,0,.3-.85.64-1.37.81a8.9,8.9,0,0,1-5.43.5c-.86,0-1.59,0-1.58-1.15-.93-1.75-3.84-1.92-4.74-3.86-.54-1.16-1.34-4.38-2.94-1.92-.09.13-.57,0-1.12,0l.93-1.47c-.58-1.21-2.45-1.89-1.58-3.85-1.49.06-2.63,1.22-3.47-.64-1.59-1.41-4.35-.27-6.27-1-2.84-.64-3-3.44-2.52-5.87a5.13,5.13,0,0,1,2.68-.23l.07-.58a6.35,6.35,0,0,0-2-.2"/>
  </g>
</svg>
